<svg xmlns="http://www.w3.org/2000/svg" viewBox="0 0 536.22668 539.73334" height="539.733" width="536.227"><g><path d="M521.429 261.875c4.82 141.243-104.989 259.623-245.261 264.409-140.275 4.787-257.896-105.833-262.715-247.075-4.82-141.243 104.987-259.623 245.26-264.409 140.274-4.787 257.896 105.832 262.716 247.075z" stroke="#000000" stroke-width="26.6" fill="6f0800"/><path d="M303.509 255.556l-14.389-10.042" stroke="#000000" stroke-width="11.97" fill="6f0800"/><path d="M252.423 302.07s25.789 9.656 37.704-1.285" stroke="#000000" stroke-width="9.31" fill="none"/><path d="M270.558 241.758l-.616-223.832" stroke="#000000" stroke-width="11.97" fill="none"/><path d="M254.982 248.434l-82.617-208.742" stroke="#000000" stroke-width="11.97" fill="none"/><path d="M258.622 303.615l-39.352 210.271" stroke="#000000" stroke-width="11.97" fill="none"/><path d="M278.031 306.464l36.088 208.574" stroke="#000000" stroke-width="11.97" fill="none"/><path d="M137.465 483.318l65.77-104.951" stroke="#000000" stroke-width="11.97" fill="none"/><path d="M396.399 482.385l-51.248-86.913" stroke="#000000" stroke-width="11.97" fill="none"/><path d="M467.172 421.154l-44.221-35.359" stroke="#000000" stroke-width="11.97" fill="none"/><path d="M509.107 338.085l-48.824-15.894" stroke="#000000" stroke-width="11.97" fill="none"/><path d="M516.668 250.918l-41.033 6.667" stroke="#000000" stroke-width="11.97" fill="none"/><path d="M495.59 173.507l-37.283 13.563" stroke="#000000" stroke-width="11.97" fill="none"/><path d="M446.516 98.81l-25.587 21.941" stroke="#000000" stroke-width="11.97" fill="none"/><path d="M72.111 422.885l43.168-36.639" stroke="#000000" stroke-width="11.97" fill="none"/><path d="M27.761 341.078l48.339-17.315" stroke="#000000" stroke-width="11.97" fill="none"/><path d="M17.654 254.171l41.209 5.462" stroke="#000000" stroke-width="11.97" fill="none"/><path d="M39.238 167.991l36.88 14.626" stroke="#000000" stroke-width="11.97" fill="none"/><path d="M91.925 89.986l22.501 25.097" stroke="#000000" stroke-width="11.97" fill="none"/><path d="M190.55 83.842s54.513 2.528 76.652-17.54" stroke="#000000" stroke-width="11.97" fill="none"/><path d="M272.645 64.431s46.96 27.797 75.927 20.453" stroke="#000000" stroke-width="11.97" fill="none"/><path d="M354.502 84.555s35.677 41.297 65.472 43.55" stroke="#000000" stroke-width="11.97" fill="none"/><path d="M188.602 83.97s-34.69 42.126-64.424 45.086" stroke="#000000" stroke-width="11.97" fill="none"/><path d="M212.723 141.901s33.41 1.495 55.847-9.806" stroke="#000000" stroke-width="11.97" fill="none"/><path d="M328.857 141.592s-33.41 1.511-55.853-9.778" stroke="#000000" stroke-width="11.97" fill="none"/><path d="M160.713 174.696s35.657-13.722 52.01-32.795" stroke="#000000" stroke-width="11.97" fill="none"/><path d="M380.506 175.651s-35.37-14.921-51.649-34.059" stroke="#000000" stroke-width="11.97" fill="none"/><path d="M236.485 463.926s-44.623-31.411-74.077-26.374" stroke="#000000" stroke-width="11.97" fill="none"/><path d="M307.408 461.348s-52.97-13.13-78.603 2.228" stroke="#000000" stroke-width="11.97" fill="none"/><path d="M305.158 458.285s29.213-18.554 64.259-20.628" stroke="#000000" stroke-width="11.97" fill="none"/><path d="M167.415 434.893s-14.049-25.857-45.577-49.36" stroke="#000000" stroke-width="11.97" fill="none"/><path d="M371.344 435.501s12.253-26.754 42.104-52.354" stroke="#000000" stroke-width="11.97" fill="none"/><path d="M190.625 214.638c14.965 1.245 40.492-22.45 40.492-22.45" stroke="#000000" stroke-width="11.97" fill="none"/><path d="M308.382 191.374s31.662 28.7 42.851 22.172" stroke="#000000" stroke-width="11.97" fill="none"/><path d="M232.751 188.621s24.61.916 36.588-8.27c0 0 33.827 13.768 42.446 9.085" stroke="#000000" stroke-width="11.97" fill="none"/><path d="M235.175 259.646l15.244-16.322 18.293-4.136 17.748 5.539 80.921-201.156" stroke="#000000" stroke-width="11.97" fill="none"/><path d="M250.592 351.293s20.924-4.225 35.132.556" stroke="#000000" stroke-width="11.97" fill="none"/><path d="M240.81 399.032s31.264-9.849 53.575.803" stroke="#000000" stroke-width="11.97" fill="none"/><path d="M297.951 401.472s30.79-23.877 34.447-19.612" stroke="#000000" stroke-width="11.97" fill="none"/><path d="M239.264 405.229s-26.326-25.436-37.663-23.295" stroke="#000000" stroke-width="11.97" fill="none"/><path d="M280.312 270.395s4.984 94.639 30.283 115.722c0 0 84.148 73.501 147.526-24.348 0 0 53.454-79.952 2.644-205.506 0 0-27.253-52.619-55.183-73.613 0 0 12.079 45.236-8.545 58.229 0 0-92.403 96.207-106.931 133.572l-9.794-4.055" fill="#000000"/><path d="M280.312 270.395s4.984 94.639 30.283 115.722c0 0 84.148 73.501 147.526-24.348 0 0 53.454-79.952 2.644-205.506 0 0-27.253-52.619-55.183-73.613 0 0 12.079 45.236-8.545 58.229 0 0-92.403 96.207-106.931 133.572z" stroke="#000000" stroke-width="1.33" fill="none"/><path d="M424.984 179.134s-79.652 32.566-117.085 118.994c0 0 19.953 95.882 92.13 75.865 0 0 91.995-56.689 24.955-194.858" fill="#fff"/><path d="M258.136 269.377s-6.502 94.546-32.138 115.219c0 0-85.318 72.142-147.116-26.712 0 0-52.163-80.801.657-205.524 0 0 28.094-52.176 56.358-72.716 0 0-12.804 45.035 7.61 58.359 0 0 90.847 97.677 104.771 135.269l9.858-3.896" fill="#000000"/><path d="M258.136 269.377s-6.502 94.546-32.138 115.219c0 0-85.318 72.142-147.116-26.712 0 0-52.163-80.801.657-205.524 0 0 28.094-52.176 56.358-72.716 0 0-12.804 45.035 7.61 58.359 0 0 90.847 97.677 104.771 135.269z" stroke="#000000" stroke-width="1.33" fill="#000000"/><path d="M114.949 175.805s79.118 33.839 115.157 120.86c0 0-21.487 95.55-93.335 74.374 0 0-91.073-58.16-21.822-195.233" fill="#fff"/></g></svg>