<svg height="512pt" viewBox="0 0 512.00104 512" width="512pt" xmlns="http://www.w3.org/2000/svg"><path d="m329.523438 357.808594-10.605469-10.605469 10.605469-10.605469 10.605468 10.605469zm17.679687-17.675782-10.609375-10.609374 10.605469-10.605469 10.609375 10.605469zm0 0"/><path d="m489.425781 22.578125c-33.382812-12.125-85.003906-22.097656-136.851562-22.5585938-96.292969-.8671872-184.933594 29.7773438-253.855469 98.6992188-68.671875 68.671875-99.5625 157.140625-98.703125 253.855469.460937 51.632812 10.371094 103.292969 22.558594 136.851562 33.382812 12.121094 85.003906 22.09375 136.851562 22.558594 42.535157.382813 85.113281-5.433594 125.589844-19.039063 97.714844-32.839843 175.0625-110.136718 207.929687-207.929687 13.03125-38.765625 19.4375-81.019531 19.039063-125.585937-.460937-51.636719-10.371094-103.296876-22.558594-136.851563zm-86.753906 380.097656c-78.890625 78.890625-175.503906 94.804688-242.613281 94.3125-62.988282-.488281-112.660156-15.117187-125.710938-19.339843-4.222656-13.050782-18.847656-62.722657-19.335937-125.707032-.519531-67.132812 15.421875-163.722656 94.3125-242.613281 64.621093-64.617187 149.71875-95.019531 242.617187-94.3125 62.984375.484375 112.65625 15.113281 125.710938 19.335937 4.222656 13.050782 18.847656 62.722657 19.335937 125.707032.519531 67.136718-15.421875 163.722656-94.316406 242.617187zm0 0"/><path d="m32.933594 277.820312 10.605468-10.605468 201.238282 201.238281-10.605469 10.605469zm0 0"/><path d="m25.464844 368.675781 10.605468-10.609375 117.863282 117.863282-10.609375 10.605468zm0 0"/><path d="m358.058594 36.074219 10.609375-10.605469 117.859375 117.859375-10.609375 10.605469zm0 0"/><path d="m267.214844 43.546875 10.605468-10.605469 201.238282 201.238282-10.605469 10.609374zm0 0"/><path d="m307.695312 166.136719-20.113281 20.113281-9.792969-9.792969-10.605468 10.605469 9.789062 9.792969-19.632812 19.632812-9.792969-9.789062-10.605469 10.605469 9.792969 9.789062-19.636719 19.636719-9.792968-9.792969-10.605469 10.609375 9.792969 9.789063-19.636719 19.636718-9.789063-9.792968-10.609375 10.605468 9.792969 9.792969-20.113281 20.109375v20.261719l17.914062 17.910156h20.257813l20.109375-20.113281 9.792969 9.792968 10.605468-10.605468-9.789062-9.792969 19.632812-19.632813 9.792969 9.789063 10.605469-10.605469-9.789063-9.789062 19.632813-19.636719 9.792968 9.792969 10.605469-10.605469-9.792969-9.792969 19.636719-19.636718 9.792969 9.792968 10.605469-10.605468-9.792969-9.792969 20.113281-20.109375v-20.261719l-17.910156-17.910156zm-109.601562 164.726562h-7.832031l-9.125-9.125v-7.832031l15.71875-15.71875 16.957031 16.957031zm26.324219-26.324219-16.957031-16.957031 19.636718-19.636719 16.957032 16.957032zm30.242187-30.242187-16.957031-16.957031 19.636719-19.636719 16.957031 16.957031zm30.242188-30.242187-16.957032-16.957032 19.636719-19.632812 16.957031 16.957031zm45.960937-45.960938-15.71875 15.71875-16.957031-16.957031 15.71875-15.71875h7.832031l9.125 9.125zm0 0"/><path d="m118.515625 204.730469 38.550781-6.105469 17.71875 34.769531 12.050782-1.90625 6.105468-38.546875 38.550782-6.105468 1.910156-12.046876-34.777344-17.722656 6.101562-38.542968-10.867187-5.542969-27.597656 27.597656-34.777344-17.71875-8.625 8.632813 17.71875 34.769531-27.597656 27.597656zm29.703125-56.507813 20.941406 10.667969 16.617188-16.617187-3.675782 23.210937 20.941407 10.671875-23.214844 3.675781-3.675781 23.210938-10.667969-20.941407-23.214844 3.679688 16.617188-16.621094zm0 0"/></svg>