<svg id="graduate" enable-background="new 0 0 300 300" height="512" viewBox="0 0 300 300" width="512" xmlns="http://www.w3.org/2000/svg"><g><path d="m237.129 57.037-91.375-26.875c-.784-.23-1.619-.215-2.394.043l-80.625 26.875c-1.633.545-2.735 2.073-2.735 3.795s1.102 3.25 2.735 3.795l9.653 3.218v46.143c-5.14 1.554-8.895 6.33-8.895 11.969 0 6.896 5.61 12.506 12.506 12.506s12.506-5.61 12.506-12.506c0-5.35-3.383-9.913-8.117-11.695v-43.75l11.612 3.87v34.825c0 .171.017.339.038.506-.012.126-.038.249-.038.378v23.422c0 16.37 9.245 31.436 23.553 38.38l12.447 6.041v8.023h-9.067c-30.29 0-54.933 24.643-54.933 54.932v25.068c0 2.209 1.791 4 4 4h156c2.209 0 4-1.791 4-4v-25.068c0-30.289-24.643-54.932-54.932-54.932h-9.068v-8.379l12.137-5.762c14.496-6.883 23.863-22.006 23.863-38.53v-24.079-33.617l37.129-10.92c1.702-.501 2.871-2.063 2.871-3.838s-1.169-3.337-2.871-3.838zm-161.129 73.469c-2.484 0-4.506-2.021-4.506-4.506 0-2.484 2.021-4.506 4.506-4.506s4.506 2.021 4.506 4.506c0 2.484-2.022 4.506-4.506 4.506zm144 110.426v21.068h-24v-24c0-2.209-1.791-4-4-4s-4 1.791-4 4v24h-84v-24c0-2.209-1.791-4-4-4s-4 1.791-4 4v24h-24v-21.068c0-25.878 21.054-46.932 46.933-46.932h9.185c.999 8.986 8.634 16 17.882 16s16.883-7.014 17.882-16h9.186c25.878 0 46.932 21.054 46.932 46.932zm-64-48.932c0 5.514-4.486 10-10 10s-10-4.486-10-10v-10.141l.827.401c2.761 1.34 5.729 2.01 8.698 2.01 2.913 0 5.826-.645 8.545-1.936l1.93-.916zm16.705-27.368-22.066 10.477c-3.284 1.56-7.047 1.543-10.319-.045l-21.273-10.325c-11.571-5.616-19.047-17.856-19.047-31.183v-18.519c13.316 4.662 27.571 6.995 42.685 6.995 15.558 0 32.028-2.479 49.315-7.42v18.718c0 13.449-7.573 25.736-19.295 31.302zm19.295-58.345c-34.913 10.399-65.069 10.479-92 .238v-29.433l43.36 14.453c.41.137.837.205 1.265.205.38 0 .76-.054 1.129-.162l46.246-13.602zm-47.3-22.728-68.051-22.684 68.051-22.684 77.124 22.684z"/></g></svg>