<?xml version="1.0" encoding="iso-8859-1"?>
<!-- Generator: Adobe Illustrator 19.0.0, SVG Export Plug-In . SVG Version: 6.00 Build 0)  -->
<svg version="1.1" id="Capa_1" xmlns="http://www.w3.org/2000/svg" xmlns:xlink="http://www.w3.org/1999/xlink" x="0px" y="0px"
	 viewBox="0 0 59 59" style="enable-background:new 0 0 59 59;" xml:space="preserve">
<g>
	<g>
		<path d="M37.267,19.332L48.866,0H36.534L29.6,11.557L22.667,0H10.334l11.563,19.272C14.294,22.305,8.9,29.728,8.9,38.4
			C8.9,49.759,18.141,59,29.5,59s20.6-9.241,20.6-20.6C50.1,29.789,44.785,22.406,37.267,19.332z M37.667,2h7.667l-9.993,16.656
			c-0.76-0.225-1.542-0.398-2.336-0.535c-0.33-0.058-0.66-0.11-0.991-0.152c-0.234-0.029-0.467-0.057-0.703-0.078
			C30.708,17.837,30.104,17.8,29.5,17.8c-0.438,0-0.885,0.017-1.344,0.051L37.667,2z M13.866,2h7.667l6.9,11.5l-2.806,4.677
			c-0.567,0.108-1.121,0.248-1.67,0.402c-0.041,0.011-0.086,0.018-0.127,0.03L13.866,2z M29.5,57c-10.256,0-18.6-8.344-18.6-18.6
			c0-8.217,5.361-15.194,12.765-17.649l0.024-0.008c0.373-0.123,0.765-0.231,1.164-0.332c0.077-0.02,0.154-0.041,0.231-0.06
			c0.43-0.103,0.87-0.195,1.323-0.271h0.003c0.535-0.09,1.042-0.155,1.533-0.201c0.514-0.043,1.031-0.079,1.556-0.079
			c0.567,0,1.125,0.035,1.679,0.085c0.276,0.026,0.55,0.065,0.825,0.104c0.247,0.034,0.493,0.07,0.737,0.113
			c0.37,0.067,0.738,0.143,1.105,0.232c0.109,0.026,0.217,0.056,0.326,0.084c0.433,0.114,0.865,0.237,1.294,0.383l0.056,0.019
			C42.828,23.33,48.1,30.253,48.1,38.4C48.1,48.656,39.756,57,29.5,57z"/>
		<path d="M29.5,22.28c-8.889,0-16.12,7.231-16.12,16.12c0,8.888,7.231,16.119,16.12,16.119S45.62,47.288,45.62,38.4
			S38.389,22.28,29.5,22.28z M29.5,52.52c-7.786,0-14.12-6.334-14.12-14.119c0-7.786,6.334-14.12,14.12-14.12
			s14.12,6.334,14.12,14.12C43.62,46.186,37.286,52.52,29.5,52.52z"/>
		<path d="M41.034,34.691c-0.118-0.362-0.431-0.626-0.807-0.681l-6.798-0.988l-3.04-6.16c-0.337-0.684-1.457-0.684-1.794,0
			l-3.04,6.16l-6.798,0.988c-0.376,0.055-0.689,0.318-0.807,0.681c-0.118,0.361-0.02,0.759,0.253,1.024l4.919,4.795l-1.162,6.771
			c-0.064,0.375,0.09,0.754,0.398,0.978c0.308,0.224,0.715,0.254,1.053,0.076l6.081-3.195l6.081,3.195
			c0.146,0.077,0.306,0.115,0.465,0.115c0.207,0,0.414-0.064,0.588-0.191c0.308-0.224,0.462-0.603,0.398-0.978l-1.162-6.771
			l4.919-4.795C41.053,35.45,41.151,35.053,41.034,34.691z M34.088,39.446c-0.235,0.229-0.343,0.561-0.288,0.885l0.908,5.291
			l-4.752-2.497c-0.146-0.077-0.306-0.115-0.465-0.115s-0.32,0.038-0.465,0.115l-4.752,2.497l0.908-5.291
			c0.056-0.324-0.052-0.655-0.288-0.885l-3.845-3.748l5.313-0.772c0.326-0.047,0.607-0.252,0.753-0.547l2.376-4.814l2.376,4.814
			c0.146,0.295,0.427,0.5,0.753,0.547l5.313,0.772L34.088,39.446z"/>
	</g>
</g>
<g>
</g>
<g>
</g>
<g>
</g>
<g>
</g>
<g>
</g>
<g>
</g>
<g>
</g>
<g>
</g>
<g>
</g>
<g>
</g>
<g>
</g>
<g>
</g>
<g>
</g>
<g>
</g>
<g>
</g>
</svg>
