<?xml version="1.0" encoding="iso-8859-1"?>
<!-- Generator: Adobe Illustrator 18.0.0, SVG Export Plug-In . SVG Version: 6.00 Build 0)  -->
<!DOCTYPE svg PUBLIC "-//W3C//DTD SVG 1.1//EN" "http://www.w3.org/Graphics/SVG/1.1/DTD/svg11.dtd">
<svg version="1.1" id="Capa_1" xmlns="http://www.w3.org/2000/svg" xmlns:xlink="http://www.w3.org/1999/xlink" x="0px" y="0px"
	 viewBox="0 0 454.932 454.932" style="enable-background:new 0 0 454.932 454.932;" xml:space="preserve">
<path d="M454.932,377.908c0-0.2-0.01-0.399-0.03-0.599c-1.57-15.653-8.32-27.915-20.063-36.445
	c-9.002-6.54-20.566-10.842-36.392-13.54c-37.09-6.323-49.521-9.851-55.404-12.2l-29.867-77.814l39.731-55.623
	c1.039-1.454,1.375-3.297,0.917-5.024s-1.663-3.162-3.286-3.911l-7.157-3.303l66.097-73.228c2.22-2.46,2.026-6.254-0.434-8.475
	c-2.459-2.219-6.253-2.027-8.474,0.434l-68.601,76.002l-6.268-2.893c-25.625-11.826-56.283-2.731-71.312,21.155l-14.533,23.097
	l-5.789-0.573c-25.49-2.521-48.221-14.631-64.006-34.1c-11.4-14.06-18.072-30.752-19.493-48.206
	c9.724-3.887,34.013-15.087,57.509-37.774c29.169-28.164,53.848-66.462,54.884-68.078c1.788-2.79,0.977-6.5-1.813-8.289
	s-6.501-0.978-8.289,1.813c-0.247,0.384-24.979,38.754-53.117,65.922c-18.852,18.202-38.574,28.594-49.255,33.379
	c0.083-1.214,0.176-2.43,0.31-3.646c0.64-5.811-2.388-11.253-7.713-13.866c-5.37-2.633-11.582-1.751-15.942,2.236L35.62,163.6
	c-3.592,2.718-6.705,5.883-9.294,9.362c-13.302,7.85-22.536,20.817-25.403,35.81c-2.476,12.949,0.099,25.643,6.889,33.953
	l26.178,32.043c6.685,8.183,16.131,13.485,26.598,14.931c10.968,1.515,18.846,10.977,17.935,21.542
	c-1.182,13.714,4.581,26.967,15.417,35.452l93.167,72.957c19.281,16.233,43.937,26.069,69.437,27.698
	c0.128,0.009,0.255,0.013,0.383,0.013c0.018,0,0.035,0,0.053,0l114.69-1.02c37.413,0,62.148-7.373,73.519-21.915
	c6.15-7.866,8.079-17.376,5.761-28.281C453.502,390.564,454.932,384.397,454.932,377.908z M442.931,378.202
	c-0.165,18.116-15.563,32.804-34.466,32.804h-89.798c8.105-8.778,19.557-14.048,31.799-14.221l20.342-0.286
	c7.268-0.103,13.999-3.089,18.953-8.408c4.954-5.319,7.453-12.246,7.039-19.503c-0.336-5.889,2.891-11.323,8.223-13.846
	l16.617-7.861C434.63,353.584,441.402,363.745,442.931,378.202z M405.776,341.111l-5.885,2.784
	c-9.773,4.623-15.689,14.584-15.072,25.377c0.226,3.96-1.138,7.739-3.84,10.642s-6.375,4.531-10.34,4.588l-20.342,0.286
	c-19.057,0.267-36.634,10.223-46.706,26.219h-6.295c-23.459,0-46.615-5.447-67.408-15.51
	c16.814-27.804,21.818-64.224,14.448-105.867c-3.734-21.1-9.725-38.722-13.736-49.065c5.404,0.586,10.977,0.969,16.722,1.13
	c2.24,0.063,4.448,0.092,6.618,0.092c20.965-0.001,38.354-2.719,46.472-4.246l2.172,5.66h-20.549c-3.313,0-6,2.687-6,6s2.687,6,6,6
	h25.155l3.71,9.667h-15.787c-3.313,0-6,2.687-6,6s2.687,6,6,6h20.393l3.71,9.667h-17.104c-3.313,0-6,2.687-6,6s2.687,6,6,6h21.71
	l3.71,9.666h-16.42c-3.313,0-6,2.687-6,6s2.687,6,6,6h19.304l-0.309,0.556c-4.713,8.466-4.108,18.598,1.578,26.441
	c4.725,6.518,12.041,10.192,19.837,10.192c1.591,0,3.203-0.153,4.816-0.467c14.738-2.862,27.654-8.932,38.44-18.053
	c0.553,0.095,1.09,0.188,1.654,0.284C399.738,339.717,402.844,340.372,405.776,341.111z M216.81,238.545
	c6.672,15.684,37.251,94.766,2.468,151.289c-10.278-6.01-19.834-13.206-28.378-21.488l-77.7-75.315
	c17.766-16.638,26.715-35.826,26.604-57.125c-0.116-22.34-10.061-46.188-29.558-70.885c-8.928-11.309-17.779-20.085-23.31-25.198
	l31.109-23.536c-2.432,19.061,0.222,51.592,32.495,87.898C166.041,221.623,188.635,233.269,216.81,238.545z M340.403,326.961
	c5.995,2.189,16.109,4.91,37.936,8.977c-7.241,4.382-15.364,7.471-24.289,9.205c-4.958,0.96-9.687-0.902-12.649-4.99
	C338.522,336.182,338.165,331.281,340.403,326.961z M264.546,188.834c11.829-18.8,35.959-25.96,56.128-16.649l18.256,8.425
	l-31.562,44.187c-5.773-8.466-15.13-14.076-25.872-15.137l-28.293-2.799L264.546,188.834z M137.798,102.896
	c0.853,0.247,1.158,0.99,1.071,1.78c-2.924,26.557,4.843,52.748,21.871,73.75c17.819,21.978,43.441,35.645,72.146,38.483
	l47.43,4.691c4.653,0.46,8.979,2.277,12.486,5.051c-25.895,4.091-96.683,10.747-133.292-30.438
	c-18.491-20.802-28.849-43.386-29.954-65.31c-0.603-11.95,1.691-20.77,3.027-24.78c0.404-1.214,1.203-2.281,2.328-2.891
	C135.686,102.812,136.666,102.568,137.798,102.896z M42.86,173.17l34.331-25.974c11.986,10.869,50.426,48.836,50.613,88.804
	c0.084,17.944-7.742,34.288-23.241,48.66l-65.106-63.107c-6.013-5.81-9.503-13.513-9.826-21.69
	C29.232,189.718,34.176,179.74,42.86,173.17z M371.616,434.341l-114.522,1.018c-22.915-1.51-45.044-10.367-62.334-24.953
	c-0.056-0.047-0.112-0.093-0.169-0.138l-93.251-73.022c-7.633-5.978-11.692-15.313-10.86-24.975
	c1.461-16.935-10.948-32.07-28.249-34.459c-7.456-1.03-14.184-4.807-18.946-10.636l-26.178-32.043
	c-4.501-5.51-6.186-14.747-4.396-24.108c0.885-4.63,2.567-9.01,4.916-12.995c-0.013,0.768-0.013,1.537,0.017,2.307
	c0.446,11.279,5.232,21.88,13.472,29.84l151.435,146.786c30.632,29.691,71.384,46.043,114.747,46.043h111.169
	c11.434,0,21.909-4.036,30.012-10.708c-0.674,1.674-1.582,3.252-2.742,4.736C427.008,428.195,404.256,434.341,371.616,434.341z"/>
<g>
</g>
<g>
</g>
<g>
</g>
<g>
</g>
<g>
</g>
<g>
</g>
<g>
</g>
<g>
</g>
<g>
</g>
<g>
</g>
<g>
</g>
<g>
</g>
<g>
</g>
<g>
</g>
<g>
</g>
</svg>
