<svg id="Capa_1" enable-background="new 0 0 512 512" height="512" viewBox="0 0 512 512" width="512" xmlns="http://www.w3.org/2000/svg"><path d="m478.286 166.53c-9.342-23.082-24.45-45.157-44.904-65.611-35.444-35.444-74.723-54.32-116.816-56.166-7.967-25.884-32.101-44.753-60.565-44.753-34.935 0-63.356 28.421-63.356 63.355 0 7.821 1.429 15.377 4.069 22.385-10.292 7.69-20.313 16.393-29.848 25.929-27.356 27.357-44.998 61.115-51.017 97.625-5.816 35.281-.618 71.334 15.033 104.264 6.398 13.462 2.889 29.768-8.536 39.652l-94.183 81.482c-3.55 3.071-5.684 7.523-5.853 12.214-.17 4.692 1.637 9.287 4.957 12.607l14.59 14.589c1.464 1.464 3.384 2.196 5.303 2.196 1.92 0 3.839-.732 5.304-2.197 2.929-2.929 2.929-7.678-.001-10.606l-14.589-14.588c-.5-.5-.588-1.069-.573-1.459.014-.389.143-.951.677-1.413l94.183-81.482c16.509-14.283 21.554-37.901 12.269-57.435-5.979-12.579-10.226-25.566-12.795-38.691l134.233 134.232c-13.148-2.578-26.136-6.825-38.686-12.789-19.532-9.283-43.152-4.239-57.435 12.269l-81.483 94.183c-.462.534-1.023.663-1.413.677-.391.019-.958-.075-1.457-.573l-8.887-8.887c-2.929-2.929-7.678-2.929-10.606 0-2.93 2.929-2.93 7.677-.001 10.606l8.887 8.887c3.177 3.177 7.521 4.968 12 4.968.201 0 .403-.003.605-.011 4.691-.169 9.145-2.303 12.216-5.853l81.483-94.183c9.883-11.424 26.189-14.934 39.651-8.535 61.866 29.404 133.471 20.8 186.868-22.457 3.219-2.607 3.714-7.33 1.107-10.548-2.607-3.219-7.331-3.714-10.549-1.107-21.189 17.164-45.51 28.357-70.875 33.349l-45.857-45.857.274-33.06c.017-2.011-.775-3.943-2.196-5.365l-63.586-63.586c-1.407-1.407-3.315-2.197-5.304-2.197-.021 0-.042 0-.063 0l-33.06.273-45.817-45.817c6.155-31.118 21.64-60.624 45.788-84.772 8.429-8.429 17.249-16.147 26.288-23.044 7.656 11.15 18.866 19.83 32.391 24.29 3.934 1.299 8.175-.84 9.472-4.774s-.841-8.174-4.774-9.471c-19.861-6.549-33.205-25.003-33.205-45.921 0-26.663 21.692-48.355 48.356-48.355 26.663 0 48.355 21.692 48.355 48.355 0 21.347-13.691 39.917-34.068 46.21-3.958 1.222-6.176 5.421-4.953 9.379.994 3.221 3.961 5.289 7.164 5.289.732 0 1.478-.108 2.215-.336 26.702-8.246 44.643-32.576 44.643-60.542 0-1.152-.035-2.295-.096-3.432 36.989 2.533 71.778 19.866 103.513 51.602 69.424 69.423 69.063 157.271-.967 234.994-2.772 3.078-2.525 7.82.552 10.592 1.434 1.292 3.229 1.928 5.019 1.928 2.05 0 4.093-.836 5.574-2.479 34.368-38.145 53.892-80.524 56.459-122.555 1.409-23.052-2.334-45.754-11.124-67.474zm-309.168 99.163c1.407 1.407 3.315 2.197 5.304 2.197h.063l33.06-.273 59.142 59.141-.274 33.06c-.017 2.01.775 3.943 2.196 5.365l40.003 40.003c-6.21.471-12.451.572-18.694.309l-161.115-161.113c-.257-6.239-.146-12.472.331-18.673z"/><path d="m91.179 453.728 16.455-16.456c2.93-2.929 2.93-7.677.001-10.606s-7.677-2.929-10.607 0l-16.456 16.456c-2.929 2.929-2.929 7.677 0 10.606 1.465 1.465 3.384 2.197 5.304 2.197 1.918-.001 3.838-.733 5.303-2.197z"/><path d="m153.507 202.973c-2.929 2.929-2.929 7.678 0 10.606l23.904 23.905c1.465 1.465 3.384 2.197 5.304 2.197 1.919 0 3.839-.732 5.304-2.197 2.929-2.929 2.929-7.678 0-10.606l-23.904-23.905c-2.93-2.929-7.678-2.93-10.608 0z"/><path d="m296.815 346.281c-2.929 2.929-2.929 7.678 0 10.606l23.905 23.905c1.465 1.464 3.385 2.197 5.304 2.197s3.839-.732 5.304-2.197c2.929-2.929 2.929-7.678 0-10.606l-23.905-23.905c-2.93-2.929-7.678-2.929-10.608 0z"/><path d="m245.838 54.39c2.453-3.185 6.157-5.011 10.163-5.011 4.005 0 7.709 1.826 10.162 5.011 1.478 1.918 3.699 2.923 5.947 2.923 1.597 0 3.208-.509 4.571-1.559 3.281-2.528 3.892-7.237 1.364-10.519-5.315-6.899-13.351-10.856-22.045-10.856-8.695 0-16.73 3.957-22.046 10.856-2.527 3.281-1.917 7.991 1.364 10.519 3.282 2.527 7.992 1.916 10.52-1.364z"/><path d="m248.861 79.066h14.28c4.143 0 7.5-3.358 7.5-7.5s-3.357-7.5-7.5-7.5h-14.28c-4.143 0-7.5 3.358-7.5 7.5s3.357 7.5 7.5 7.5z"/></svg>