<?xml version="1.0" encoding="utf-8"?>
<!-- Generator: Adobe Illustrator 16.0.0, SVG Export Plug-In . SVG Version: 6.00 Build 0)  -->
<!DOCTYPE svg PUBLIC "-//W3C//DTD SVG 1.1//EN" "http://www.w3.org/Graphics/SVG/1.1/DTD/svg11.dtd">
<svg version="1.1" id="Layer_1" xmlns="http://www.w3.org/2000/svg" xmlns:xlink="http://www.w3.org/1999/xlink" x="0px" y="0px"
	 width="50px" height="50px" viewBox="0 0 50 50" enable-background="new 0 0 50 50" xml:space="preserve">
<g>
	<path fill="#FFFFFF" d="M24.348,16.279c-4.487,0.391-8.109,4.057-7.884,8.676c0.23,4.716,4.194,8.297,8.855,8.346
		C36.924,33.423,35.696,14.913,24.348,16.279z M25.319,31.882c-3.897,0.01-7.2-3.025-7.436-6.927
		c-0.23-3.795,2.75-6.934,6.464-7.256C33.854,16.554,35.112,31.857,25.319,31.882z"/>
	<path fill="#FFFFFF" d="M49.519,25.213c-0.04-1.2,0.385-3.607-0.69-4.51c-1.031-0.866-3.472-0.667-5.009-0.688
		c-0.358-1.201-0.634-2.457-1.111-3.605c-0.188-0.454-0.954-1.368-0.813-1.794c0.208-0.633,2.284-1.582,2.743-2.248
		c0.374-0.544,0.593-1.079,0.422-1.747c-0.288-1.135-1.672-2.01-2.454-2.743c-0.789-0.737-1.8-2.127-2.838-2.545
		c-1.674-0.676-3.319,1.618-4.433,2.891c-1.346-0.787-2.707-1.214-4.113-1.875c-1.004-0.47-1.192-0.493-1.401-1.504
		c-0.171-0.82,0.138-1.759-0.062-2.621c-0.582-2.515-3.21-1.754-5.193-1.594c-2.03,0.164-4.31-0.215-4.418,2.316
		c-0.034,0.808,0.382,1.866,0.097,2.643c-0.246,0.668-0.43,0.498-1.34,0.828c-1.407,0.512-2.701,1.125-3.955,1.918
		c-0.978-1.202-2.103-2.856-3.752-2.776C9.44,5.644,7.763,7.885,6.656,9.021c-2.274,2.334,0.104,3.932,1.833,5.708
		c-1.215,1.678-2.063,3.475-2.592,5.471c-1.553-0.297-3.736-0.516-4.823,0.563c-1.13,1.124-0.601,4.016-0.495,5.388
		c0.093,1.2,0.043,2.751,1.195,3.402c1.135,0.641,3.018,0.342,4.391,0.148c0.324,1.248,0.715,2.473,1.233,3.657
		c0.122,0.278,0.667,1.041,0.628,1.301c-0.011,0.072-0.326,0.306-0.444,0.513c-0.66,1.157-2.992,2.215-2.418,3.921
		c0.538,1.602,3.872,4.471,5.468,5.087c1.774,0.686,3.26-1.206,4.458-2.443c1.679,1.198,3.473,1.937,5.517,2.237
		c-0.083,1.57-0.688,3.755,0.278,4.885c0.723,0.849,2.434,0.661,3.364,0.685c1.246,0.03,2.847,0.211,4.033-0.261
		c0.855-0.341,1.297-0.834,1.482-1.726c0.192-0.923-0.636-2.597-0.222-3.342c0.347-0.622,2.425-0.992,3.188-1.397
		c1.267-0.672,2.323-1.916,3.648-0.729c1.398,1.252,2.025,3.419,4.033,2.202c1.472-0.893,3.111-2.618,3.987-4.067
		c0.989-1.638,0.268-2.272-1.02-3.432c-1.311-1.177-1.805-1.105-1.031-2.868c0.635-1.447,1.082-2.935,1.549-4.438
		c1.512,0.079,3.733,0.439,4.909-0.313C50.023,28.396,49.557,26.367,49.519,25.213z M47.214,28.025
		c-1.03,0.323-2.757,0.019-3.835,0.026c-0.238,0.002-0.413,0.101-0.527,0.244c-0.066,0.072-0.121,0.163-0.156,0.276
		c-0.633,2.005-1.549,3.851-2.255,5.786c-0.315,0.865-0.206,1.329,0.345,2.037c0.614,0.789,2.108,1.311,2.481,2.227
		c0.392,0.969-1.533,2.633-2.14,3.234c-0.318,0.317-0.875,1.001-1.317,1.12c-0.866,0.231-1.176-0.385-1.791-1.102
		c-0.625-0.727-1.262-1.873-2.326-2.004c-0.743-0.092-1.556,0.497-2.176,0.843c-1.605,0.892-2.993,1.608-4.829,1.918
		c-0.214,0.036-0.467,0.277-0.495,0.495c-0.125,0.913,0.084,1.746,0.087,2.654c0.011,2.41-2.095,2.392-4.031,2.343
		c-1.725-0.044-2.374-0.041-2.307-1.84c0.036-0.968,0.156-1.962,0.084-2.929c-0.03-0.411-0.302-0.671-0.709-0.709
		c-2.172-0.208-4.079-0.982-5.798-2.338c-0.089-0.069-0.183-0.114-0.278-0.14c-0.227-0.088-0.495-0.068-0.725,0.14
		c-0.623,0.568-1.786,2.132-2.579,2.363c-1.379,0.403-2.627-1.203-3.508-2.041c-0.703-0.668-1.96-1.486-1.603-2.582
		c0.249-0.763,1.389-1.508,1.962-2.053c0.626-0.594,0.856-0.772,0.66-1.621c-0.22-0.951-0.902-1.876-1.24-2.804
		c-0.34-0.93-0.595-1.878-0.827-2.84c-0.066-0.272-0.387-0.556-0.684-0.521c-0.744,0.088-1.489,0.166-2.238,0.192
		C3.11,28.449,2.39,28.603,2.11,27.105c-0.202-1.079-0.323-2.438-0.185-3.524c0.079-0.612,0.129-1.628,0.737-2.013
		c0.691-0.438,2.88-0.006,3.567,0.147c0.361,0.08,0.786-0.106,0.873-0.495c0.521-2.307,1.473-4.32,2.913-6.191
		c0.198-0.258,0.079-0.643-0.111-0.86C8.882,13,6.545,11.685,7.66,10.025C8.073,9.41,9.383,8.062,10.051,7.75
		c2.105-0.984,2.938,0.493,4.106,1.844c0.156,0.357,0.552,0.594,0.964,0.313c1.561-1.066,3.194-1.681,4.94-2.348
		c0.37-0.142,0.917-0.29,1.191-0.593c0.405-0.449,0.44-1.191,0.465-1.761c0.028-0.599-0.26-1.306-0.126-1.882
		c0.28-1.188,1.493-1.153,2.542-1.238c0.67-0.054,1.482-0.126,2.161-0.174c0.869-0.069,1.284,0.062,1.773,0.319
		c0.608,0.343,0.329,1.007,0.393,1.805c0.108,0.867-0.33,1.724,0.151,2.535c0.357,0.601,0.823,0.723,1.457,0.947
		c1.752,0.617,3.355,1.15,4.938,2.165c0.059,0.037,0.115,0.062,0.173,0.081c0.239,0.124,0.538,0.118,0.786-0.128
		c0.757-0.752,1.634-2.083,2.571-2.555c1.169-0.586,1.813,0.632,2.742,1.501c0.971,0.909,2.714,1.914,1.774,3.39
		c-0.463,0.727-1.572,0.999-2.162,1.642c-0.583,0.637-0.607,0.987-0.335,1.753c0.265,0.746,0.762,1.389,1.024,2.155
		c0.382,1.109,0.654,2.258,1.021,3.373c0.104,0.319,0.357,0.496,0.684,0.521c1.104,0.084,2.464-0.024,3.525,0.271
		c1.689,0.469,1.242,2.063,1.29,3.529C48.139,26.411,48.491,27.622,47.214,28.025z"/>
	<path fill="#FFFFFF" d="M21.74,12.746c0.863-0.278,1.726-0.413,2.632-0.404c0.913,0.008,0.914-1.412,0-1.42
		c-1.024-0.01-2.036,0.142-3.009,0.456C20.497,11.657,20.868,13.028,21.74,12.746z"/>
	<path fill="#FFFFFF" d="M29.638,13.156c0.746,0.195,1.423,0.532,2.009,1.037c0.689,0.592,1.698-0.407,1.004-1.003
		c-0.772-0.665-1.648-1.144-2.636-1.402C29.131,11.555,28.754,12.924,29.638,13.156z"/>
	<path fill="#FFFFFF" d="M38.037,19.684c-0.313-0.884-0.737-1.708-1.308-2.454c-0.231-0.304-0.613-0.467-0.971-0.254
		c-0.299,0.176-0.491,0.664-0.256,0.971c0.493,0.646,0.895,1.348,1.165,2.114C36.971,20.917,38.342,20.548,38.037,19.684z"/>
	<path fill="#FFFFFF" d="M37.481,25.51c-0.074,0.834-0.221,1.65-0.425,2.462c-0.223,0.887,1.146,1.265,1.369,0.377
		c0.234-0.934,0.389-1.88,0.476-2.839C38.983,24.601,37.564,24.605,37.481,25.51z"/>
	<path fill="#FFFFFF" d="M35.57,32.431c-0.307-0.179-0.81-0.096-0.971,0.255c-0.334,0.721-0.838,1.285-1.532,1.673
		c-0.799,0.445-0.084,1.672,0.715,1.226c0.889-0.495,1.616-1.259,2.042-2.182C35.986,33.054,35.923,32.638,35.57,32.431z"/>
	<path fill="#FFFFFF" d="M28.2,36.808c-0.813,0.146-1.625,0.255-2.447,0.326c-0.902,0.079-0.91,1.499,0,1.42
		c0.947-0.084,1.89-0.209,2.824-0.379C29.473,38.013,29.095,36.645,28.2,36.808z"/>
	<path fill="#FFFFFF" d="M20.559,36.329c-0.844-0.234-1.597-0.611-2.302-1.131c-0.312-0.229-0.79-0.05-0.971,0.254
		c-0.215,0.359-0.052,0.745,0.255,0.972c0.796,0.585,1.689,1.01,2.642,1.274C21.065,37.942,21.44,36.573,20.559,36.329z"/>
	<path fill="#FFFFFF" d="M13.424,29.278c-0.243-0.879-1.613-0.505-1.369,0.378c0.28,1.018,0.763,1.919,1.416,2.744
		c0.24,0.303,0.752,0.246,1.004,0c0.3-0.293,0.237-0.704,0-1.004C13.978,30.77,13.635,30.048,13.424,29.278z"/>
	<path fill="#FFFFFF" d="M12.776,24.1c-0.009-0.865,0.048-1.723,0.191-2.575c0.15-0.894-1.217-1.278-1.369-0.378
		c-0.165,0.979-0.252,1.96-0.242,2.953C11.365,25.013,12.785,25.016,12.776,24.1z"/>
	<path fill="#FFFFFF" d="M16.465,14.05c-0.859,0.529-1.626,1.188-2.259,1.975c-0.241,0.298-0.292,0.711,0,1.003
		c0.249,0.249,0.761,0.3,1.003,0c0.561-0.696,1.211-1.284,1.972-1.752C17.958,14.798,17.246,13.57,16.465,14.05z"/>
</g>
</svg>
