<?xml version="1.0" encoding="utf-8"?>
<!-- Generator: Adobe Illustrator 16.0.0, SVG Export Plug-In . SVG Version: 6.00 Build 0)  -->
<!DOCTYPE svg PUBLIC "-//W3C//DTD SVG 1.1//EN" "http://www.w3.org/Graphics/SVG/1.1/DTD/svg11.dtd">
<svg version="1.1" id="Layer_1" xmlns="http://www.w3.org/2000/svg" xmlns:xlink="http://www.w3.org/1999/xlink" x="0px" y="0px"
	 width="50px" height="50px" viewBox="0 0 50 50" enable-background="new 0 0 50 50" xml:space="preserve">
<g>
	<path fill="#FFFFFF" d="M49.497,37.771c-0.805-1.104-2.036-1.911-3.112-2.723c-1.51-1.139-2.838-2.474-4.269-3.697
		c1.903-1.296,1.388-5.146,1.364-7.09c-0.052-4.136-0.205-8.284-0.307-12.419c-0.03-1.189-0.021-2.562-1.108-3.348
		c-1.193-0.864-3.676-0.517-5.116-0.63c-4.022-0.319-8.114,0.159-12.16,0.01c-4.55,0.028-9.102,0.05-13.652,0.078
		c-1.24,0.008-2.398-0.123-3.213,0.953c-1.04,1.374-0.801,3.43-0.737,5.021c0.204,5.053-0.305,10.123,0.042,15.195
		c0.078,1.138,0.56,1.844,1.257,2.283c-1.889,1.337-3.829,2.602-5.637,4.05c-1.336,1.071-2.855,2.08-2.85,3.921
		c0.004,1.618,0.754,2.447,2.309,2.629c3.083,0.359,6.341,0.251,9.435,0.141c7.167-0.261,14.316-0.04,21.477-0.237
		c3.102-0.085,6.198,0.002,9.3,0.026c1.895,0.016,5.323,0.687,6.775-0.892C50.176,40.085,50.218,38.761,49.497,37.771z M8.522,25.2
		c-0.069-2.151-0.126-4.306-0.061-6.458c0.061-1.988,0.135-3.93,0.088-5.918c-0.029-1.275-0.021-2.962,1.496-3.456
		c0.821-0.267,2.132-0.013,2.987-0.018c3.918-0.023,7.837-0.043,11.756-0.067c2.527,0.093,5.072,0.144,7.595,0.003
		c1.894-0.106,8.639-0.758,9.338,1.537c0.247,0.814,0.047,1.968,0.043,2.825c-0.007,1.897,0.048,3.791,0.129,5.686
		c0.066,1.513,0.143,3.024,0.169,4.537c0.016,0.945,0.016,1.891-0.008,2.837c-0.034,1.355,0.182,2.469-1.033,3.195
		c-1.367,0.814-3.819,0.355-5.405,0.347c-1.756-0.012-3.509-0.061-5.264-0.035c-3.439,0.048-6.875,0.24-10.315,0.276
		c-1.656,0.018-3.313-0.047-4.969,0.023c-1.501,0.063-4.107,0.675-5.511-0.093C8.042,29.592,8.567,26.627,8.522,25.2z
		 M47.699,40.421c-1.104,0.517-3.6,0.11-4.813,0.103c-6.132-0.035-12.298-0.221-18.418-0.141c-6.398,0.084-12.789,0.479-19.2,0.336
		c-1.24-0.029-3.725,0.265-3.857-1.345c-0.085-1.029,0.961-1.678,1.659-2.284c2.131-1.849,4.568-3.319,6.846-4.977
		c0.063-0.045,0.112-0.098,0.154-0.153c1.109,0.185,2.373,0.113,3.471,0.056c4.46-0.232,8.941-0.162,13.409-0.306
		c2.215-0.071,4.432-0.118,6.648-0.085c2.221,0.031,4.653,0.313,6.881,0.173c0.013,0.012,0.021,0.024,0.035,0.036
		c2.284,1.84,4.646,3.788,6.826,5.748C48.18,38.339,49.602,39.531,47.699,40.421z"/>
	<path fill="#FFFFFF" d="M11.48,28.667c4.591-0.077,9.21-0.07,13.798-0.266c4.617-0.197,9.381-0.429,13.995-0.148
		c0.281,0.017,0.536-0.256,0.529-0.528c-0.127-5.228-0.154-10.443-0.361-15.676c-0.012-0.283-0.233-0.532-0.53-0.529
		c-9.223,0.111-18.449-0.11-27.677-0.013c-0.126,0.002-0.22,0.046-0.299,0.105c-0.134,0.082-0.233,0.218-0.23,0.425
		c0.082,5.367,0.164,10.733,0.247,16.101C10.956,28.42,11.19,28.672,11.48,28.667z M38.4,12.582
		c0.181,4.869,0.221,9.724,0.333,14.587c-4.444-0.231-9.018-0.014-13.455,0.175c-4.414,0.187-8.858,0.189-13.277,0.259
		c-0.077-5.014-0.153-10.027-0.23-15.041C20.648,12.48,29.525,12.678,38.4,12.582z"/>
	<path fill="#FFFFFF" d="M30.079,35.644c-0.091-0.234-0.258-0.372-0.51-0.389c-2.91-0.198-5.802,0.074-8.714,0.089
		c-0.256,0.002-0.419,0.169-0.51,0.389c-0.385,0.937-0.661,1.779-0.86,2.782c-0.022,0.116-0.009,0.22,0.027,0.311
		c0.058,0.197,0.216,0.36,0.482,0.36c3.485-0.003,7.206,0.265,10.659-0.276c0.268-0.043,0.459-0.405,0.369-0.651
		C30.706,37.385,30.415,36.509,30.079,35.644z M20.679,38.133c0.134-0.438,0.283-0.876,0.353-1.3
		c0.058-0.144,0.116-0.286,0.176-0.43c0.015-0.003,0.027-0.004,0.045-0.006c1.384-0.099,2.782-0.107,4.168-0.142
		c1.232-0.029,2.53-0.135,3.757,0.032c0.009,0.001,0.016,0.001,0.023,0.002c0.063,0.164,0.127,0.325,0.189,0.489
		c0.066,0.375,0.229,0.789,0.387,1.185C26.817,38.344,23.671,38.161,20.679,38.133z"/>
	<path fill="#FFFFFF" d="M24.838,10.912c0.682,0,0.683-1.058,0-1.058C24.158,9.854,24.158,10.912,24.838,10.912z"/>
	<path fill="#FFFFFF" d="M12.623,14.386c0.402,0.635,0.83,1.252,1.284,1.852c0.174,0.229,0.454,0.343,0.724,0.189
		c0.226-0.128,0.362-0.496,0.19-0.724c-0.454-0.6-0.882-1.216-1.285-1.852C13.172,13.278,12.256,13.809,12.623,14.386z"/>
	<path fill="#FFFFFF" d="M16.004,16.12c0.468,0.497,1.216-0.252,0.748-0.748c-0.552-0.585-1.104-1.169-1.655-1.754
		c-0.468-0.497-1.216,0.253-0.748,0.748C14.901,14.951,15.453,15.536,16.004,16.12z"/>
</g>
</svg>
