<?xml version="1.0" encoding="utf-8"?>
<!-- Generator: Adobe Illustrator 16.0.0, SVG Export Plug-In . SVG Version: 6.00 Build 0)  -->
<!DOCTYPE svg PUBLIC "-//W3C//DTD SVG 1.1//EN" "http://www.w3.org/Graphics/SVG/1.1/DTD/svg11.dtd">
<svg version="1.1" id="Layer_1" xmlns="http://www.w3.org/2000/svg" xmlns:xlink="http://www.w3.org/1999/xlink" x="0px" y="0px"
	 width="50px" height="50px" viewBox="0 0 50 50" enable-background="new 0 0 50 50" xml:space="preserve">
<g>
	<path fill="#FFFFFF" d="M16.893,11.317c-5.289,3.315-8.459,10.631-6.236,16.647c0.721,1.953,1.634,3.849,2.835,5.556
		c0.621,0.881,1.341,1.65,2.056,2.451c1.07,1.201,1.37,2.133,1.771,3.586c0.167,0.603,0.346,1.018,0.611,1.316
		c-0.46,0.516-0.638,1.238-0.258,1.863c-0.936,1.212-0.52,1.949,0.483,2.399c-1.548,2.318,1.7,2.802,4.665,2.818
		c0.052,0.46,0.116,0.955,0.305,1.338c0.297,0.599,1.096,0.658,1.686,0.649c0.666-0.01,1.602-0.071,2.181-0.424
		c0.55-0.332,0.678-1.088,0.727-1.73c1.701,0.04,4.288,0.167,5.145-0.914c0.525-0.665,0.275-1.277-0.205-1.747
		c0.82-0.444,1.142-1.14,0.469-2.214c0.376-0.582,0.156-1.305-0.447-1.926c0.114-0.145,0.225-0.303,0.321-0.506
		c0.384-0.81,0.155-1.691,0.354-2.541c0.305-1.289,1.151-1.947,1.845-2.978c1.028-1.524,2.452-3.005,3.256-4.647
		c2.634-5.379,1.552-12.879-2.642-17.136C30.715,8.003,22.99,7.495,16.893,11.317z M23.902,22.134
		c0.144-0.874,0.63-1.378,1.459-1.515c0.584,0.465,0.793,1.065,0.624,1.799c0.031,0.829-0.353,1.563-0.955,2.174
		C24.333,23.886,23.794,23.014,23.902,22.134z M24.943,25.992c0.792,0.646,1.694,1.146,2.523,1.41
		c-1.196,4.129-0.917,9.119-0.674,13.201c-0.519-0.021-1.006-0.041-1.417-0.035c-0.654,0.002-1.338-0.002-2.028-0.03
		c-0.042-1.771,0.124-8.595-0.964-13.326C23.345,26.916,24.246,26.467,24.943,25.992z M25.375,42.008
		c1.734-0.013,3.495-0.099,5.227-0.238c0.43-0.037,0.809-0.076,1.144-0.174c1.058,1.071-2.032,1.297-2.778,1.326
		c-1.176,0.049-2.354,0.021-3.53-0.018c-1.082-0.035-2.165-0.067-3.245-0.135c-0.731-0.047-4.573-0.509-3.284-1.336
		c0.134,0.039,0.281,0.07,0.441,0.1C21.292,41.877,23.404,42.018,25.375,42.008z M31.486,44.525
		c-0.428,0.054-0.855,0.106-1.285,0.16c-0.537,0.047-1.078,0.067-1.618,0.078c-1.207,0.029-2.417-0.011-3.624-0.021
		c-0.975-0.01-1.948-0.023-2.922-0.071c-0.275-0.014-3.936-0.126-3.508-1.218c1.563,0.742,4.428,0.438,5.779,0.49
		c2.299,0.088,5.297,0.522,7.563-0.225C31.743,43.988,31.615,44.256,31.486,44.525z M26.197,48.67
		c-0.398,0.15-0.968,0.188-1.386,0.191c-0.182,0.004-0.439,0.035-0.606-0.045c-0.157-0.077-0.035,0.022-0.138-0.15
		c-0.096-0.163-0.141-0.454-0.171-0.721c1.237-0.034,2.293-0.121,2.739-0.15C26.602,48.162,26.508,48.555,26.197,48.67z
		 M31.48,45.583c-0.356,0.752-0.907,1.067-1.656,0.946c-0.557,0.033-1.111,0.063-1.668,0.099c-0.945,0.054-1.891,0.11-2.835,0.151
		c-0.744,0.033-7.224,0.252-6.146-1.23c0.019-0.025,0.03-0.049,0.043-0.074c2.005,0.452,4.866,0.34,5.741,0.351
		c0.875,0.007,4.25,0.241,6.486-0.269C31.458,45.564,31.467,45.573,31.48,45.583z M38.02,26.482
		c-0.406,1.938-0.813,3.148-2.055,4.781c-1.009,1.325-2.042,2.68-2.949,4.077c-0.455,0.699-0.851,1.399-1.05,2.218
		c-0.274,1.129,0.164,2.174-1.364,2.769c-0.713,0.276-1.721,0.323-2.727,0.309c-0.243-4.127-0.466-8.94,0.688-13.015
		c2.071,0.173,5.107-0.74,4.576-3.188c-0.763-3.507-4.022-1.024-4.936,0.954c-0.137,0.3-0.266,0.611-0.381,0.925
		c-0.446-0.145-0.85-0.316-1.15-0.479c-0.257-0.14-0.546-0.326-0.836-0.543c1.548-1.412,2.173-3.228,0.6-5.06
		c-1.279-1.491-3.165-0.479-3.573,1.377c-0.29,1.319,0.336,2.619,1.319,3.673c-0.624,0.412-1.343,0.727-2.06,0.922
		c-0.813-2.783-2.174-4.511-4.457-3.358c-1.328,0.669-1.161,2.523-0.3,3.521c0.994,1.147,2.505,1.352,4.005,1.091
		c0.413,1.926,0.404,3.947,0.508,5.902c0.127,2.371,0.253,4.74,0.38,7.109c-0.68-0.058-1.349-0.146-1.982-0.289
		c-1.013-0.226-1.22-0.197-1.636-1.283c-0.274-0.713-0.234-1.485-0.598-2.19c-0.877-1.7-2.673-2.921-3.729-4.54
		c-1.159-1.775-2.314-3.934-2.759-6.021c-0.702-3.304,0.36-6.818,2.158-9.556c2.617-3.98,6.638-5.973,11.337-6.339
		c4.282-0.334,8.655,1.915,11.029,5.517C38.197,18.979,38.786,22.806,38.02,26.482z M28.898,26.568
		c0.021-0.061,0.037-0.121,0.061-0.182c0.268-0.802,0.691-1.509,1.273-2.121c1.896-0.655,2.256-0.055,1.072,1.8
		C30.723,26.624,29.802,26.703,28.898,26.568z M21.092,26.402c-0.315,0.033-0.619,0.039-0.901,0.019
		c-0.736-0.058-3.167-0.847-2.38-2.212c1.067-1.852,2.869,0.982,3.164,1.811C21.02,26.145,21.053,26.273,21.092,26.402z"/>
	<path fill="#FFFFFF" d="M45.02,12.015c-1.556,0.704-3.146,1.356-4.541,2.356c-0.746,0.536-0.027,1.787,0.728,1.245
		c1.396-1.001,2.987-1.653,4.541-2.358C46.591,12.876,45.857,11.633,45.02,12.015z"/>
	<path fill="#FFFFFF" d="M34.566,8.645c1.066-1.367,1.887-2.856,2.73-4.366c0.454-0.811-0.79-1.539-1.246-0.728
		c-0.779,1.395-1.518,2.811-2.505,4.075C32.982,8.348,33.996,9.375,34.566,8.645z"/>
	<path fill="#FFFFFF" d="M25.443,5.623c0.112-1.622,0.165-3.244,0.157-4.87c-0.006-0.927-1.447-0.929-1.44,0
		c0.008,1.625-0.043,3.248-0.156,4.87C23.938,6.548,25.379,6.544,25.443,5.623z"/>
	<path fill="#FFFFFF" d="M15.298,8.627c0.514,0.767,1.763,0.046,1.244-0.728c-0.973-1.454-2.076-2.891-2.699-4.54
		c-0.326-0.859-1.719-0.487-1.39,0.383C13.126,5.524,14.246,7.057,15.298,8.627z"/>
	<path fill="#FFFFFF" d="M9.34,14.238c-1.424-1.048-2.957-1.877-4.597-2.535c-0.86-0.345-1.235,1.049-0.383,1.389
		c1.521,0.609,2.934,1.419,4.252,2.39C9.36,16.032,10.08,14.782,9.34,14.238z"/>
	<path fill="#FFFFFF" d="M20.256,13.145c-3.362,0.98-6.4,4.595-6.867,8.047c-0.092,0.681,0.949,0.974,1.042,0.288
		c0.417-3.084,3.081-6.408,6.112-7.292C21.209,13.993,20.926,12.949,20.256,13.145z"/>
	<path fill="#FFFFFF" d="M20.928,15c-1.032,0.146-1.999,0.861-2.625,1.67c-0.42,0.543,0.339,1.313,0.764,0.764
		c0.529-0.684,1.273-1.269,2.148-1.392C21.901,15.947,21.609,14.905,20.928,15z"/>
</g>
</svg>
