<?xml version="1.0" encoding="utf-8"?>
<!-- Generator: Adobe Illustrator 16.0.0, SVG Export Plug-In . SVG Version: 6.00 Build 0)  -->
<!DOCTYPE svg PUBLIC "-//W3C//DTD SVG 1.1//EN" "http://www.w3.org/Graphics/SVG/1.1/DTD/svg11.dtd">
<svg version="1.1" id="Layer_1" xmlns="http://www.w3.org/2000/svg" xmlns:xlink="http://www.w3.org/1999/xlink" x="0px" y="0px"
	 width="50px" height="50px" viewBox="0 0 50 50" enable-background="new 0 0 50 50" xml:space="preserve">
<g>
	<path fill="#FFFFFF" d="M10.353,39.333c1.125-1.188,2.315-2.356,3.335-3.636c0.477-0.6,0.717-1.157,0.468-1.857
		c-0.003-0.117-0.05-0.231-0.148-0.32c-0.098-0.128-0.229-0.181-0.363-0.181c-1.882-0.673-3.509,1.713-4.663,2.908
		c-1.477,1.529-3.496,3.253-4.1,5.337c-0.056,0.192,0.003,0.405,0.144,0.546C6.925,44.032,9.22,40.529,10.353,39.333z M7.304,40.909
		c-0.307,0.277-1.221,1.017-1.259,0.858c-0.14-0.602,1.062-1.777,1.462-2.236c0.495-0.569,0.996-1.134,1.509-1.687
		c0.576-0.622,2.961-3.64,4.115-3.494c-0.026,0.944-2.913,3.493-3.377,3.984c-0.53,0.561-1.064,1.118-1.597,1.677
		C7.875,40.309,7.607,40.636,7.304,40.909z"/>
	<path fill="#FFFFFF" d="M12.839,38.572c-1.184,1.243-2.366,2.486-3.514,3.764c-0.873,0.971-1.433,1.474-1.26,2.782
		c0,0.001,0,0.001,0,0.002c0.003,0.023,0.001,0.043,0.005,0.066c0.03,0.197,0.135,0.309,0.266,0.364
		c1.608,1.412,4.371-2.306,5.264-3.251c0.937-0.992,4.499-3.933,3.578-5.649C16.101,34.642,13.481,37.897,12.839,38.572z
		 M9.148,44.656c0.103-1.316,2.495-3.194,3.297-4.044c0.457-0.482,2.97-3.49,3.381-3.058C16.467,38.229,10.241,44.405,9.148,44.656z
		"/>
	<path fill="#FFFFFF" d="M45.006,36.711c-4.622-4.653-9.635-8.913-14.614-13.207c2.924-2.896,5.832-5.809,8.705-8.756
		c0.653-0.669,1.297-1.445,2-2.061c1.013-0.888,1.53-0.74,2.766-0.979c0.411-0.079,0.732-0.077,1.088-0.313
		c1.329-0.882,2.313-3.548,3.015-4.927c0.687-1.348,0.623-1.66-0.453-2.805c-1.079-1.148-1.577-1.997-2.988-1.248
		c-1.621,0.86-4.191,1.918-5.415,3.304c-0.341,0.386-0.304,0.49-0.479,0.936c-0.003,0.331-0.007,0.661-0.012,0.99
		c-0.219,0.898-0.676,1.625-1.37,2.183c-0.555,0.655-1.24,1.234-1.847,1.839c-2.889,2.883-5.764,5.782-8.644,8.674
		c-2.329-2.043-4.625-4.121-6.85-6.271c2.11-3.089,2.437-7.074,0.11-10.158c-2.427-3.219-5.746-4.176-9.549-3.404
		c-0.476,0.097-0.681,0.707-0.447,1.1c0.729,1.221,1.421,2.464,2.114,3.708c0.228,0.408,0.443,0.908,0.716,1.29
		c0.183,0.255,0.239,0.515,0.264,0.605c-0.246,1.214-0.931,2.521-1.433,3.699c-0.715-0.036-1.43-0.07-2.145-0.105
		c-0.452-0.022-1.225-0.211-1.659-0.082c-0.023,0.007-0.036,0.008-0.058,0.015C6.696,8.985,5.673,7.149,4.614,5.355
		C4.358,4.923,3.795,4.885,3.438,5.204C0.317,7.995,0.257,13.129,2.806,16.34c2.938,3.703,7.261,4.095,11.44,2.884
		c2.234,2.309,4.474,4.612,6.709,6.919c-0.252,0.25-0.503,0.5-0.755,0.749c-0.898-0.84-1.808-1.667-2.747-2.465
		c-0.313-0.266-0.747-0.299-1.058,0c-0.64,0.613-1.379,1.34-1.789,2.145c-0.595,1.171-0.035,2.354-0.469,3.578
		c-0.145,0.444-2.972,0.48-3.624,0.787c-1.093,0.516-2.085,1.524-2.955,2.332c-1.238,1.151-2.371,2.404-3.451,3.704
		c-0.8,0.964-2.161,2.228-2.71,3.361c-0.809,1.67,1.007,3.072,2.057,4.256c1.397,1.571,3.386,4.009,5.272,4.916
		c2.064,0.994,3.51-1.388,4.8-2.686c1.942-1.953,4.051-3.902,5.686-6.131c0.494-0.674,0.801-1.209,0.89-2.061
		c0.165-1.577-0.538-2.241,1.54-2.532c1.854-0.259,2.93-1.02,4.238-2.438c0.282-0.305,0.288-0.754,0-1.059
		c-0.761-0.811-1.532-1.611-2.309-2.405c0.225-0.218,0.449-0.437,0.674-0.656c2.811,2.901,5.619,5.807,8.436,8.702
		c1.52,1.562,3.04,3.125,4.567,4.68c1.529,1.558,3.031,3.485,5.084,4.327c2.906,1.191,5.738-0.457,6.538-3.41
		C49.669,40.902,46.869,38.588,45.006,36.711z M34.61,14.046c1.504-1.506,4.347-3.4,5.018-5.448
		c0.172-0.525-0.065-1.657,0.063-1.909c0.281-0.551,1.719-1.137,2.205-1.428c0.79-0.474,1.587-0.937,2.382-1.401
		c1.062-0.62,1.073-0.776,1.932,0.083c0.681,0.68,1.085,0.895,0.874,1.789c-0.18,0.768-0.885,1.646-1.279,2.326
		c-0.371,0.642-0.773,1.664-1.336,2.156c-0.624,0.543-1.479,0.43-2.263,0.59c-2.198,0.452-3.725,2.972-5.237,4.514
		c-2.456,2.503-4.938,4.982-7.429,7.451c-0.647-0.56-1.291-1.124-1.936-1.687C29.939,18.737,32.271,16.389,34.61,14.046z
		 M7.729,10.762C7.406,10.831,7.531,10.691,7.729,10.762L7.729,10.762z M23.484,33.887c-1.211,0.867-1.954,0.47-3.273,0.684
		c-1.276,0.206-1.687,0.899-1.714,2.138c-0.024,1.051,0.269,1.854-0.277,2.834c-0.545,0.979-1.544,1.855-2.305,2.674
		c-0.927,0.993-1.878,1.966-2.834,2.933c-0.611,0.619-1.227,1.232-1.841,1.847c-0.695,0.695-0.685,0.916-1.714,0.779
		c-1.703-0.229-3.666-2.756-4.817-4.027c-0.713-0.788-1.923-1.814-1.712-2.962c0.193-1.056,2.221-2.834,2.967-3.689
		c1.622-1.865,3.897-4.796,6.479-5.015c1.293-0.109,2.661-0.065,3.139-1.533c0.364-1.025-0.005-1.946,0.242-2.93
		c0.153-0.612,0.637-1.164,1.124-1.646c2.594,2.25,5.019,4.67,7.378,7.163C24.06,33.407,23.784,33.672,23.484,33.887z
		 M22.782,29.399c-0.583-0.584-1.172-1.162-1.768-1.733c0.24-0.238,0.481-0.478,0.721-0.717c0.578,0.596,1.155,1.19,1.731,1.785
		C23.238,28.956,23.01,29.179,22.782,29.399z M47.165,43.074c-0.193,2.005-1.456,3.529-3.726,2.986
		c-1.665-0.398-2.92-1.963-4.078-3.13c-6.093-6.142-12.076-12.392-18.094-18.604c-2.09-2.158-4.18-4.316-6.269-6.475
		c-0.005-0.006-0.012-0.01-0.018-0.016c-0.161-0.178-0.406-0.273-0.709-0.176c-3.4,1.074-6.597,1.228-9.468-1.367
		c-2.582-2.333-3.14-6.604-0.967-9.319C4.35,7.837,4.864,8.699,5.38,9.561c0.383,0.64,0.836,1.988,1.473,2.416
		c1.222,0.82,3.877,0.383,5.32,0.454c0.35,0.018,0.61-0.248,0.722-0.55c0.491-1.311,1.86-3.473,1.778-4.88
		c-0.038-0.66-0.677-1.419-0.981-1.966c-0.602-1.083-1.21-2.164-1.832-3.238c2.612-0.294,4.815,0.466,6.679,2.644
		c2.41,2.814,1.883,6.554-0.261,9.353c-0.196,0.255-0.099,0.696,0.117,0.906c6.428,6.272,13.291,12.066,20.01,18.018
		c2.698,2.389,5.476,4.737,7.802,7.506C47.117,41.306,47.316,41.501,47.165,43.074z"/>
	<path fill="#FFFFFF" d="M44.678,40.322c-1.008-0.739-2.26-0.218-2.979,0.669c-0.045,0.042-0.086,0.091-0.12,0.155
		c-0.056,0.08-0.084,0.158-0.096,0.234c-0.407,1.021-0.153,2.259,0.839,2.853c1.075,0.643,2.458,0.153,3.185-0.796
		C46.35,42.335,45.671,41.05,44.678,40.322z M44.443,42.948c-0.382,0.36-0.974,0.609-1.475,0.364
		c-0.592-0.289-0.705-1.052-0.421-1.6c0.374-0.528,1.06-0.828,1.595-0.389C44.669,41.759,45.038,42.386,44.443,42.948z"/>
</g>
</svg>
