<?xml version="1.0" encoding="utf-8"?>
<!-- Generator: Adobe Illustrator 16.0.0, SVG Export Plug-In . SVG Version: 6.00 Build 0)  -->
<!DOCTYPE svg PUBLIC "-//W3C//DTD SVG 1.1//EN" "http://www.w3.org/Graphics/SVG/1.1/DTD/svg11.dtd">
<svg version="1.1" id="Layer_1" xmlns="http://www.w3.org/2000/svg" xmlns:xlink="http://www.w3.org/1999/xlink" x="0px" y="0px"
	 width="50px" height="50px" viewBox="0 0 50 50" enable-background="new 0 0 50 50" xml:space="preserve">
<g>
	<path fill="#FFFFFF" d="M46.009,2.875c-2.771-2.582-5.396-3.328-8.95-1.856c-3.146,1.302-5.607,4.146-8.088,6.41
		c-3.735,3.405-7.334,6.958-10.872,10.569c-3.414,3.485-6.77,7.031-10.056,10.637c-1.467,1.609-3.122,3.203-4.389,4.988
		c-0.049,0.052-0.095,0.109-0.134,0.184c-0.053,0.076-0.085,0.151-0.108,0.227c-0.873,1.758-1.234,3.906-1.667,5.781
		c-0.694,3.004-1.272,6.043-1.546,9.112c-0.052,0.584,0.563,0.865,1.038,0.791c4.793-0.75,9.525-1.811,14.301-2.651
		c1.943-0.344,2.789-1.685,4.149-3.092c2.281-2.356,4.549-4.727,6.817-7.093c4.219-4.401,8.436-8.805,12.725-13.138
		c3.533-3.573,8.529-7.449,10.215-12.368C50.686,7.746,48.547,5.241,46.009,2.875z M40.939,19.871
		c-1.959-1.622-3.453-3.512-5.215-5.38c-1.854-1.966-3.843-3.798-5.836-5.621c0.362-0.336,0.728-0.673,1.092-1.008
		c3.696,3.637,7.348,7.319,10.949,11.051C41.602,19.235,41.271,19.554,40.939,19.871z M36.543,24.135
		c-3.47-3.919-7.523-7.284-11.457-10.726c0.325-0.315,0.65-0.627,0.977-0.94c4.18,3.064,7.723,7.105,11.367,10.768
		c-0.141,0.139-0.281,0.278-0.418,0.417C36.854,23.813,36.699,23.975,36.543,24.135z M15.377,39.841c-0.001,0.002-0.004,0-0.005,0
		c-1.561,0.093-3.122,0.095-4.682,0.142c-0.053-1.193-0.047-3.086-0.481-4.188c2.813-2.759,5.238-5.771,7.921-8.646
		c3.027-3.242,6.239-6.325,9.369-9.468c1.626,1.423,3.233,2.868,4.778,4.373C26.791,28.12,21.214,34.105,15.377,39.841z
		 M28.982,9.705c0.289,0.265,0.58,0.531,0.869,0.797c-0.58,0.671-1.197,1.305-1.848,1.907c-0.345-0.275-0.697-0.535-1.051-0.798
		C27.627,10.972,28.303,10.338,28.982,9.705z M32.988,16.947c0.641-0.509,1.24-1.062,1.808-1.648c0.021,0.021,0.04,0.041,0.06,0.06
		c0.346,0.366,0.674,0.729,1,1.091c-0.519,0.605-1.082,1.166-1.691,1.678C33.773,17.733,33.383,17.339,32.988,16.947z
		 M32.113,16.085c-0.338-0.33-0.676-0.66-1.021-0.982c0.564-0.61,1.144-1.208,1.731-1.794c0.376,0.366,0.744,0.738,1.111,1.111
		C33.363,15.013,32.758,15.57,32.113,16.085z M30.184,14.275c-0.404-0.365-0.813-0.723-1.229-1.074
		c0.632-0.591,1.234-1.209,1.799-1.865c0.398,0.371,0.796,0.743,1.189,1.117C31.344,13.049,30.757,13.656,30.184,14.275z
		 M35.02,19.009c0.6-0.502,1.153-1.049,1.664-1.641c0.362,0.405,0.727,0.804,1.096,1.197c-0.547,0.535-1.068,1.093-1.569,1.671
		C35.813,19.827,35.416,19.419,35.02,19.009z M14.639,23.95c3.03-3.195,6.117-6.331,9.264-9.404
		c0.886,0.775,1.777,1.548,2.667,2.323c-3.111,3.123-6.301,6.188-9.311,9.408c-2.682,2.873-5.109,5.888-7.92,8.646
		c-0.474-0.14-1.088-0.156-1.434-0.22c-0.901-0.162-1.807-0.3-2.715-0.418C7.846,30.559,11.516,27.242,14.639,23.95z M8.389,46.891
		c-1.291-1.662-3.36-3.729-5.353-5.336c0.096-0.437,0.187-0.871,0.289-1.305c0.354-1.532,0.636-3.313,1.249-4.827
		c1.305,0.116,3.351,0.144,4.496,0.729c-0.444-0.147-0.008,0.815,0.072,1.447c0.128,1.004,0.244,2.01,0.362,3.016
		c0.037,0.318,0.251,0.628,0.615,0.613c1.157-0.045,2.349,0.029,3.501-0.076c1.255-0.117,1.21-0.369,1.35,0.865
		c0.127,1.125,0.214,2.254,0.293,3.383c-0.142,0.051-0.285,0.096-0.434,0.133C12.718,46.063,10.56,46.499,8.389,46.891z
		 M26.043,34.99c-1.948,2.033-3.895,4.066-5.847,6.095c-1.187,1.233-2.317,2.767-3.743,3.71c-0.091-1.301-0.204-2.604-0.397-3.893
		c5.908-5.795,11.547-11.848,17.096-17.984c0.771,0.776,1.521,1.572,2.246,2.392C32.262,28.52,29.148,31.751,26.043,34.99z
		 M38.309,22.377c-0.416-0.417-0.83-0.834-1.242-1.259c0.502-0.578,1.024-1.138,1.572-1.674c0.444,0.438,0.911,0.865,1.409,1.277
		C39.459,21.279,38.875,21.83,38.309,22.377z M47.428,11.938c-1.054,2.104-2.621,4.01-4.347,5.807
		c-3.583-3.712-7.216-7.376-10.894-10.996c0.08-0.073,0.158-0.148,0.24-0.222c2.479-2.235,5.57-5.58,9.307-4.547
		c1.728,0.478,3.141,1.981,4.308,3.271C47.936,7.344,48.836,9.129,47.428,11.938z"/>
	<path fill="#FFFFFF" d="M37.338,5.245c-0.146-0.776-1.331-0.447-1.188,0.327c0.209,1.115,0.492,2.207,0.851,3.282
		c0.249,0.748,1.437,0.427,1.187-0.326C37.829,7.452,37.545,6.36,37.338,5.245z"/>
	<path fill="#FFFFFF" d="M39.421,4.822c-0.248-0.748-1.437-0.428-1.185,0.326C38.544,6.074,38.854,7,39.16,7.927
		c0.248,0.746,1.438,0.426,1.188-0.327C40.038,6.674,39.729,5.748,39.421,4.822z"/>
</g>
</svg>
