<?xml version="1.0" encoding="utf-8"?>
<!-- Generator: Adobe Illustrator 16.0.0, SVG Export Plug-In . SVG Version: 6.00 Build 0)  -->
<!DOCTYPE svg PUBLIC "-//W3C//DTD SVG 1.1//EN" "http://www.w3.org/Graphics/SVG/1.1/DTD/svg11.dtd">
<svg version="1.1" id="Layer_1" xmlns="http://www.w3.org/2000/svg" xmlns:xlink="http://www.w3.org/1999/xlink" x="0px" y="0px"
	 width="50px" height="50px" viewBox="0 0 50 50" enable-background="new 0 0 50 50" xml:space="preserve">
<g>
	<path fill="#FFFFFF" d="M40.931,14.959c-0.886-0.118-1.863,0.103-2.775,0.279c-0.943-2.31-1.978-4.579-3.093-6.792
		c-0.703-1.396-1.527-3.604-2.891-4.527c-1.883-1.275-4.008,0.836-5.19,2.131c-5.034,5.517-9.625,11.337-16.368,14.907
		c-0.063,0.033-0.115,0.073-0.16,0.114c-1.9,0.581-3.794,1.177-5.679,1.803c-1.214,0.404-2.87,0.676-3.872,1.568
		c-1.721,1.531-0.573,4.865,0.107,6.614c0.641,1.647,2.132,4.971,4.05,5.534c0.525,0.156,1.147,0.072,1.77-0.084
		c1.141,2.365,2.179,4.799,3.495,7.075c0.848,1.467,1.705,3.417,3.687,2.761c2.065-0.683,4.667-2.792,4.038-5.23
		c-0.318-1.231-1.444-2.15-2.144-3.15c-0.775-1.108-1.379-2.306-1.948-3.523c0.306-0.098,0.613-0.192,0.919-0.292
		c3.869-0.753,7.761-1.14,11.692-0.706c3.5,0.386,6.917,1.311,10.354,2.042c1.692,0.36,4.92,1.695,6.083-0.355
		c1.188-2.093-0.379-6.01-0.92-8.091c-0.367-1.413-0.775-2.821-1.213-4.223c0.95-0.639,2.127-1.243,2.591-2.31
		c0.488-1.127,0.001-2.37-0.475-3.41C42.581,16.202,42.002,15.102,40.931,14.959z M3.947,33.452
		c-0.568-0.789-1.024-1.637-1.405-2.531c-0.38-0.896-0.673-1.81-0.847-2.77c-0.373-2.056,0.779-2.958,2.553-3.556
		c2.142-0.721,4.296-1.404,6.457-2.066c1.09,3.457,2.247,6.889,3.47,10.302c-1.917,0.615-3.847,1.187-5.799,1.683
		C6.56,34.977,5.187,35.176,3.947,33.452z M15.464,39.202c0.196,0.259,0.506,0.591,0.665,0.839c0.956,1.5,0.977,2.423-0.287,3.816
		c-0.336,0.371-0.993,0.789-1.431,0.999c-0.43,0.206-0.748,0.314-1.029,0.323c0.203-0.35,0.371-0.718,0.503-1.104
		c0.229-0.672-0.833-0.96-1.06-0.292c-0.111,0.323-0.259,0.626-0.435,0.914c-0.048-0.044-0.093-0.084-0.144-0.134
		c-0.103-0.105-0.199-0.224-0.294-0.341c0.011-0.023,0.023-0.044,0.032-0.07c0.08-0.235,0.23-0.443,0.341-0.666
		c0.136-0.271,0.251-0.554,0.35-0.841c0.231-0.672-0.831-0.96-1.061-0.294c-0.097,0.283-0.237,0.546-0.373,0.809
		c-0.146-0.258-0.282-0.523-0.414-0.791c0.002-0.004,0.005-0.005,0.007-0.009c0.252-0.55,0.504-1.103,0.756-1.652
		c0.124-0.271,0.077-0.593-0.197-0.753c-0.237-0.139-0.628-0.074-0.752,0.197c-0.141,0.31-0.282,0.615-0.423,0.925
		c-0.099-0.215-0.198-0.424-0.296-0.621c-0.051-0.104-0.098-0.207-0.148-0.311c0.041-0.039,0.08-0.08,0.112-0.138
		c0.246-0.422,0.491-0.844,0.736-1.266c0.356-0.613-0.594-1.168-0.95-0.556c-0.153,0.264-0.305,0.527-0.458,0.79
		c-0.138-0.292-0.281-0.582-0.418-0.874c0.04-0.035,0.08-0.07,0.114-0.114c0.219-0.289,0.432-0.582,0.636-0.883
		c0.167-0.245,0.046-0.608-0.198-0.751c-0.272-0.16-0.584-0.049-0.752,0.196c-0.103,0.152-0.214,0.298-0.322,0.447
		c-0.126-0.268-0.253-0.538-0.381-0.806c0.312-0.102,0.608-0.197,0.874-0.264c1.389-0.354,2.766-0.745,4.135-1.163
		C13.63,36.327,14.414,37.821,15.464,39.202z M35.788,33.736c-3.161-0.698-6.316-1.477-9.545-1.796
		c-3.694-0.368-7.355-0.013-10.988,0.652c-1.254-3.497-2.439-7.017-3.554-10.562c6.06-3.307,10.772-8.475,15.214-13.662
		c0.514-0.6,1.327-1.75,2.237-2.518c2.621,3.924,4.333,8.813,6.05,13.146c1.97,4.969,3.608,10.375,4.552,15.666
		C38.402,34.563,36.737,33.946,35.788,33.736z M41.871,33.28c-0.05,0.763-0.446,1.145-1.019,1.303
		c-0.96-5.489-2.663-11.077-4.729-16.229c-1.739-4.34-3.419-9.181-6.048-13.1c0.481-0.208,0.969-0.245,1.437,0.024
		c0.623,0.357,1.156,1.777,1.484,2.375c1.523,2.779,2.8,5.705,3.972,8.646c1.4,3.514,2.639,7.103,3.608,10.76
		C41.063,28.902,41.998,31.362,41.871,33.28z M42.213,20.435c-0.381,0.544-1.072,0.925-1.684,1.301
		c-0.597-1.833-1.253-3.651-1.961-5.447c0.438-0.072,0.875-0.143,1.315-0.189c1.073-0.113,1.483,0.195,1.988,1.187
		C42.351,18.231,42.905,19.445,42.213,20.435z"/>
	<path fill="#FFFFFF" d="M41.224,11.666c0.01-1.045-0.004-2.09,0.006-3.135c0.005-0.708-1.095-0.708-1.101,0
		c-0.009,1.045,0.003,2.09-0.005,3.135C40.117,12.375,41.219,12.375,41.224,11.666z"/>
	<path fill="#FFFFFF" d="M45.701,13.783c0.574-0.628,1.146-1.257,1.719-1.885c0.477-0.522-0.299-1.302-0.777-0.778
		c-0.573,0.628-1.146,1.256-1.719,1.885C44.448,13.527,45.224,14.307,45.701,13.783z"/>
	<path fill="#FFFFFF" d="M49.472,17.384c-0.817-0.051-1.635-0.046-2.451-0.071c-0.709-0.022-0.708,1.078,0,1.1
		c0.816,0.025,1.634,0.021,2.451,0.071C50.178,18.527,50.176,17.428,49.472,17.384z"/>
	<path fill="#FFFFFF" d="M45.331,22.391c-0.574-0.415-1.124,0.539-0.555,0.95c0.701,0.506,1.352,1.073,1.99,1.654
		c0.522,0.476,1.303-0.299,0.777-0.778C46.837,23.572,46.109,22.951,45.331,22.391z"/>
	<path fill="#FFFFFF" d="M5.944,27.574c0.652-0.253,0.369-1.318-0.292-1.061c-0.738,0.287-1.476,0.574-2.213,0.86
		c-0.653,0.254-0.369,1.317,0.292,1.061C4.468,28.147,5.206,27.861,5.944,27.574z"/>
	<path fill="#FFFFFF" d="M6.247,28.314c-0.757,0.36-1.535,0.656-2.338,0.894c-0.677,0.202-0.389,1.264,0.292,1.061
		c0.893-0.266,1.76-0.604,2.601-1.005C7.44,28.96,6.883,28.011,6.247,28.314z"/>
</g>
</svg>
