<?xml version="1.0" encoding="utf-8"?>
<!-- Generator: Adobe Illustrator 16.0.0, SVG Export Plug-In . SVG Version: 6.00 Build 0)  -->
<!DOCTYPE svg PUBLIC "-//W3C//DTD SVG 1.1//EN" "http://www.w3.org/Graphics/SVG/1.1/DTD/svg11.dtd">
<svg version="1.1" id="Layer_1" xmlns="http://www.w3.org/2000/svg" xmlns:xlink="http://www.w3.org/1999/xlink" x="0px" y="0px"
	 width="200px" height="125.93px" viewBox="0 0 200 125.93" enable-background="new 0 0 200 125.93" xml:space="preserve">
<g>
	<path fill-rule="evenodd" clip-rule="evenodd" fill="#FFFFFF" d="M101.387,125.93c-0.244-0.05-0.484-0.118-0.73-0.146
		c-1.69-0.193-3.382-0.367-5.071-0.569c-1.577-0.187-3.151-0.395-4.726-0.604c-1.753-0.232-3.509-0.454-5.257-0.725
		c-2.051-0.317-4.103-0.636-6.137-1.04c-1.701-0.338-3.388-0.764-5.063-1.216c-2.269-0.61-4.534-1.242-6.778-1.937
		c-2.268-0.702-4.523-1.446-6.757-2.251c-1.865-0.674-3.74-1.352-5.516-2.222c-1.686-0.826-3.295-1.835-4.853-2.891
		c-1.408-0.955-2.699-2.083-4.043-3.133c-0.631-0.494-1.305-0.94-1.891-1.482c-0.434-0.4-0.707-0.975-1.136-1.383
		c-2.08-1.974-4.215-3.892-6.274-5.887c-1.116-1.081-2.157-2.247-3.161-3.438c-1.143-1.352-2.212-2.766-3.299-4.165
		c-0.232-0.298-0.388-0.657-0.603-0.969c-0.338-0.489-0.833-0.488-1.203-0.023c-0.095,0.12-0.238,0.321-0.332,0.308
		c-0.9-0.136-1.505,0.52-2.25,0.79c-0.465,0.169-0.898,0.087-1.347-0.245c-0.598-0.442-1.305-0.732-1.949-1.115
		c-0.647-0.386-0.934-1.033-0.925-1.733c0.008-0.709,0.115-1.437,0.315-2.117c0.196-0.665,0.175-1.306-0.249-1.771
		c-1.749-1.923-0.559-3.766,0.913-4.895c1.19-0.913,2.372-1.887,3.346-3.016c0.761-0.882,1.201-2.042,1.778-3.081
		c0.703-1.265,1.393-2.535,2.1-3.796c0.813-1.448,1.614-2.903,2.464-4.33c1.28-2.149,2.575-4.292,3.908-6.41
		c1.037-1.646,2.075-3.298,3.235-4.857c1.343-1.805,2.824-3.507,4.238-5.261c0.947-1.173,1.854-2.379,2.829-3.528
		c0.697-0.822,1.462-1.588,2.224-2.351c0.839-0.84,1.69-1.672,2.574-2.465c1.459-1.309,2.933-2.6,4.429-3.864
		c1.292-1.09,2.576-2.202,3.952-3.177c1.686-1.195,3.454-2.277,5.208-3.374c1.513-0.946,3.009-1.94,4.6-2.739
		c2.227-1.118,4.517-2.121,6.817-3.084c1.664-0.697,3.356-1.365,5.092-1.839c2.268-0.62,4.496-1.408,6.918-1.429
		c2.008-0.019,4.009-0.432,6.02-0.524c1.744-0.08,3.497,0.048,5.247,0.079c1.208,0.02,2.415-0.002,3.621,0.053
		c1.06,0.05,2.115,0.19,3.175,0.274c0.824,0.065,1.65,0.121,2.477,0.152c2.814,0.107,5.579,0.522,8.303,1.253
		c2.341,0.628,4.701,1.196,7.041,1.829c0.869,0.235,1.709,0.577,2.563,0.871c0.81,0.279,1.629,0.526,2.42,0.844
		c1.81,0.727,3.643,1.403,5.393,2.255c2.796,1.361,5.559,2.799,8.28,4.304c1.306,0.721,2.495,1.653,3.716,2.521
		c1.556,1.106,3.136,2.186,4.618,3.384c1.93,1.559,3.877,3.12,5.63,4.866c2.366,2.354,4.395,5.016,6.133,7.872
		c0.936,1.535,1.798,3.125,2.58,4.745c1.304,2.7,2.565,5.422,3.75,8.176c0.962,2.236,1.856,4.508,2.646,6.81
		c0.723,2.105,1.436,4.242,1.822,6.424c0.218,1.227,0.584,2.389,0.865,3.584c0.237,1.009,0.521,2.016,0.643,3.04
		c0.084,0.705-0.041,1.443-0.133,2.158c-0.129,1.011-1.164,2.046-2.18,2.086c-0.557,0.022-0.846,0.314-1.123,0.67
		c-0.942,1.204-1.826,2.456-2.807,3.626c-0.437,0.52-1.143,0.815-1.569,1.339c-1.135,1.391-2.292,2.734-3.771,3.78
		c-0.367,0.259-0.636,0.675-0.913,1.044c-0.73,0.979-1.365,1.996-2.24,2.898c-1.182,1.22-2.359,2.427-3.713,3.437
		c-1.254,0.938-2.606,1.746-3.914,2.614c-2.312,1.534-4.594,3.119-6.944,4.594c-1.527,0.956-3.138,1.782-4.738,2.614
		c-2.011,1.05-4.05,2.044-6.078,3.061c-1.827,0.916-3.603,1.969-5.498,2.709c-2.717,1.058-5.407,2.176-8.313,2.756
		c-2.634,0.526-5.274,0.755-7.932,0.975c-0.892,0.074-1.783,0.192-2.674,0.29C107.914,125.93,104.65,125.93,101.387,125.93z
		 M48.513,59.837c0.605-0.29,1-0.442,1.359-0.657c1.719-1.026,3.419-2.08,5.142-3.098c0.978-0.578,1.979-1.122,2.983-1.652
		c1.441-0.763,2.843-1.638,4.357-2.215c2.032-0.774,4.142-1.359,6.242-1.936c2.013-0.552,4.054-1.004,6.089-1.475
		c2.174-0.503,4.355-0.976,6.533-1.464c0.849-0.19,1.689-0.46,2.549-0.563c1.679-0.202,3.367-0.328,5.053-0.453
		c0.684-0.051,1.375-0.021,2.061-0.019c0.928,0.004,1.861-0.042,2.784,0.039c1.646,0.143,3.283,0.372,4.925,0.556
		c1.119,0.125,2.239,0.233,3.359,0.35c1.682,0.175,3.361,0.485,5.042,0.499c3.087,0.024,6.119,0.457,9.153,0.917
		c1.5,0.228,2.999,0.469,4.494,0.722c1.638,0.278,3.28,0.533,4.902,0.884c1.249,0.268,2.474,0.654,3.702,1.014
		c1.315,0.386,2.643,0.747,3.929,1.217c2.34,0.857,4.615,1.914,6.992,2.648c2.515,0.777,4.741,2.109,7.082,3.222
		c0.341,0.162,0.655,0.397,0.942,0.645c1.558,1.345,3.083,2.728,4.657,4.054c1.272,1.071,2.624,2.046,3.891,3.123
		c1.815,1.543,3.574,3.151,5.11,4.986c0.115,0.138,0.419,0.206,0.604,0.165c0.111-0.026,0.197-0.317,0.231-0.5
		c0.027-0.146-0.022-0.318-0.076-0.466c-0.491-1.371-0.987-2.74-1.486-4.109c-0.153-0.418-0.296-0.845-0.485-1.248
		c-0.662-1.404-1.343-2.798-2.015-4.197c-1.214-2.529-2.393-5.081-4.104-7.325c-1.052-1.381-2.128-2.759-3.315-4.023
		c-1.14-1.214-2.415-2.304-3.672-3.401c-0.927-0.811-1.896-1.582-2.895-2.306c-1.164-0.846-2.37-1.637-3.578-2.422
		c-1.99-1.294-3.967-2.613-6.007-3.824c-1.218-0.723-2.531-1.291-3.828-1.871c-2.133-0.956-4.261-1.935-6.44-2.773
		c-1.791-0.689-3.641-1.246-5.493-1.752c-1.878-0.514-3.784-0.932-5.692-1.322c-1.272-0.261-2.567-0.42-3.856-0.585
		c-0.924-0.117-1.852-0.188-2.778-0.249c-1.327-0.085-2.655-0.135-3.98-0.213c-1.423-0.083-2.848-0.263-4.271-0.254
		c-1.735,0.01-3.476,0.101-5.201,0.29c-1.632,0.178-3.27,0.426-4.86,0.824c-3.022,0.755-5.903,1.922-8.766,3.16
		c-3.063,1.326-5.935,2.981-8.755,4.734c-1.624,1.009-3.195,2.112-4.725,3.261c-1.594,1.197-3.125,2.479-4.65,3.764
		c-0.85,0.717-1.645,1.5-2.438,2.282c-1.263,1.242-2.552,2.465-3.741,3.776c-1.207,1.332-2.311,2.757-3.453,4.146
		c-1.098,1.335-2.198,2.669-3.266,4.029C48.674,58.998,48.66,59.354,48.513,59.837z M110.28,82.532
		c0.374,0.284,0.583,0.484,0.83,0.624c0.966,0.549,1.951,1.063,2.914,1.618c1.008,0.581,1.995,1.198,2.995,1.791
		c1.431,0.846,2.888,1.647,4.291,2.537c1.87,1.184,3.748,2.371,5.533,3.677c1.385,1.01,2.617,2.224,3.947,3.309
		c0.97,0.794,2.014,1.499,2.982,2.295c0.977,0.8,1.928,1.639,2.842,2.51c0.654,0.624,1.239,1.322,1.839,2
		c0.589,0.668,1.223,1.307,1.714,2.04c0.506,0.753,0.781,0.923,1.58,0.421c0.853-0.534,1.652-1.152,2.485-1.719
		c1.774-1.203,3.616-2.32,5.315-3.621c1.48-1.133,2.808-2.466,4.196-3.717c0.665-0.601,1.304-1.231,1.975-1.826
		c1.183-1.049,2.406-2.055,3.566-3.129c0.928-0.861,1.784-1.801,2.686-2.693c0.361-0.359,0.647-1.865,0.396-2.317
		c-0.622-1.118-1.191-2.272-1.894-3.337c-0.836-1.264-1.704-2.528-2.715-3.651c-1.19-1.322-1.91-3.028-3.542-4.012
		c-0.882-0.532-1.48-1.515-2.288-2.201c-1.801-1.527-3.649-2.998-5.482-4.485c-2.06-1.671-3.936-3.575-6.246-4.923
		c-0.828-0.484-1.654-0.985-2.53-1.371c-1.077-0.477-2.203-0.847-3.312-1.255c-1.675-0.615-3.339-1.271-5.038-1.809
		c-0.504-0.16-1.052-0.403-1.692-0.059c-0.998,0.537-1.131,1.544-1.541,2.395c-0.165,0.344-0.128,0.793-0.148,1.196
		c-0.041,0.875,0.135,1.817-0.134,2.614c-0.372,1.105-1.02,2.132-1.644,3.133c-0.407,0.654-0.924,1.267-1.494,1.786
		c-0.702,0.642-1.579,1.097-2.258,1.761c-1.179,1.158-2.258,2.417-3.393,3.624c-0.507,0.54-1.046,1.049-1.562,1.581
		c-1.121,1.157-2.227,2.326-3.354,3.476C111.545,81.362,110.951,81.895,110.28,82.532z M58.688,107.153
		c0.28-0.076,0.523-0.102,0.732-0.202c0.773-0.37,1.553-0.729,2.294-1.156c1.317-0.754,2.562-1.604,3.542-2.806
		c1.289-1.583,2.675-3.08,4.241-4.398c0.438-0.369,0.953-0.666,1.329-1.086c1.034-1.16,2.013-2.368,3.016-3.556
		c2.343-2.779,4.675-5.568,7.039-8.33c0.765-0.893,0.831-1.265,0.015-2.006c-1.705-1.546-3.376-3.137-5.168-4.575
		c-2.249-1.804-4.604-3.475-6.917-5.199c-0.918-0.684-1.851-1.35-2.767-2.036c-1.721-1.29-3.454-2.563-5.141-3.895
		c-0.772-0.61-1.49-1.305-2.153-2.033c-0.559-0.614-1.052-0.808-1.769-0.427c-0.293,0.155-0.563,0.361-0.826,0.568
		c-2.31,1.826-4.63,3.639-6.917,5.495c-1.614,1.31-3.174,2.687-4.769,4.021c-0.661,0.553-1.377,1.039-2.022,1.607
		c-1.158,1.018-2.287,2.07-3.417,3.118c-0.825,0.767-1.703,1.491-2.431,2.342c-0.596,0.697-0.933,1.539-0.283,2.467
		c0.518,0.741,0.987,1.519,1.441,2.302c1.563,2.688,3.373,5.194,5.542,7.426c1.256,1.292,2.489,2.616,3.834,3.81
		c1.947,1.726,3.946,3.402,6.002,5c1.503,1.169,3.127,2.183,4.712,3.243C58.092,107.012,58.416,107.058,58.688,107.153z
		 M80.488,115.054c1.422,0.34,2.675,0.686,3.946,0.936c1.427,0.28,2.871,0.482,4.309,0.704c1.393,0.217,2.784,0.452,4.184,0.612
		c0.983,0.11,1.982,0.078,2.97,0.168c1.848,0.17,3.69,0.524,5.535,0.54c2.612,0.019,5.232-0.094,7.832-0.348
		c2.215-0.214,4.413-0.662,6.6-1.101c1.204-0.24,2.379-0.654,3.549-1.044c0.291-0.098,0.669-0.376,0.722-0.63
		c0.058-0.278-0.123-0.763-0.357-0.919c-0.709-0.47-1.486-0.844-2.253-1.224c-1.229-0.61-2.475-1.192-3.711-1.789
		c-1.984-0.954-3.537-2.504-5.262-3.816c-2.066-1.572-4.113-3.173-6.128-4.811c-1.903-1.548-3.762-3.149-5.624-4.745
		c-0.615-0.527-1.159-0.683-1.728-0.152c-0.963,0.897-1.844,1.886-2.724,2.869c-0.654,0.73-1.208,1.557-1.886,2.263
		c-0.937,0.974-1.977,1.85-2.923,2.817c-0.838,0.86-1.614,1.781-2.405,2.685c-0.934,1.068-1.961,2.075-2.75,3.243
		C81.651,112.395,81.179,113.657,80.488,115.054z M112.307,56.211c-0.813-0.188-1.671-0.466-2.552-0.577
		c-1.858-0.233-3.731-0.378-5.597-0.563c-1.423-0.142-2.846-0.425-4.266-0.405c-2.056,0.027-4.082-0.578-6.15-0.198
		c-0.592,0.11-1.221,0.021-1.833,0.006c-1.382-0.032-2.784-0.236-4.142-0.073c-2.24,0.268-4.467,0.698-6.672,1.189
		c-2.852,0.635-5.682,1.37-8.504,2.126c-0.503,0.135-0.933,0.569-1.367,0.905c-0.06,0.046,0.001,0.415,0.101,0.473
		c0.431,0.252,0.881,0.487,1.352,0.649c1.135,0.393,2.324,0.652,3.421,1.129c1.784,0.776,3.514,1.676,5.261,2.536
		c1.664,0.819,3.339,1.618,4.971,2.494c1.338,0.72,2.631,1.526,3.928,2.322c1.233,0.756,2.47,1.513,3.656,2.339
		c0.72,0.502,1.114,0.543,1.792-0.01c0.85-0.694,1.734-1.346,2.594-2.028c1.833-1.456,3.837-2.641,5.851-3.826
		c1.354-0.797,2.894-1.313,3.893-2.711c0.92-1.287,2.076-2.406,3.115-3.609c0.317-0.367,0.634-0.745,0.882-1.159
		C112.186,56.975,112.197,56.647,112.307,56.211z"/>
	<path fill-rule="evenodd" clip-rule="evenodd" fill="#FFFFFF" d="M0,60.19c0.415-0.384,0.817-0.784,1.251-1.145
		c0.174-0.146,0.41-0.232,0.631-0.302c0.157-0.049,0.37,0.034,0.5-0.042c1.481-0.852,2.949-0.23,4.425,0.002
		c0.85,0.133,1.753,0.086,2.551,0.359c0.807,0.275,1.575,0.768,2.25,1.304c1.411,1.119,2.713,2.377,4.134,3.482
		c0.761,0.592,1.682,0.9,2.685,1.06c0.869,0.139,1.685,0.619,2.523,0.951c0.111,0.044,0.213,0.111,0.324,0.154
		c0.345,0.133,0.9,0.178,0.994,0.41c0.169,0.42,0.177,0.986,0.046,1.43c-0.189,0.636,0.012,1.12,0.324,1.605
		c0.254,0.396,0.2,0.644-0.238,0.853c-1.517,0.729-2.902,1.674-4.72,1.756c-1.539,0.069-3.062,0.082-4.497-0.375
		c-2.179-0.695-4.466-1.197-6.388-2.509c-1.557-1.062-3.053-2.23-4.177-3.792c-0.363-0.504-0.83-0.94-1.15-1.468
		C0.936,63.046,0.485,62.119,0,61.212C0,60.872,0,60.53,0,60.19z"/>
	<path fill-rule="evenodd" clip-rule="evenodd" fill="#FFFFFF" d="M86.194,0c1.457,0.541,2.93,1.041,4.357,1.65
		c0.372,0.158,0.797,0.623,0.858,1.002c0.232,1.439,0.333,2.9,0.471,4.353c0.154,1.65,0.246,3.309,0.46,4.95
		c0.135,1.03-0.042,1.995-0.316,2.956c-0.134,0.467-0.454,0.883-0.575,1.352c-0.124,0.482-0.167,1.004-0.138,1.501
		c0.037,0.625-0.22,0.916-0.81,0.924c-1.002,0.015-2.092,0.255-2.985-0.058c-1.167-0.408-2.579-0.466-3.386-1.699
		c-0.274-0.419-0.764-0.69-1.119-1.064c-0.516-0.543-0.805-1.17-0.934-1.945c-0.267-1.612-0.782-3.187-1-4.803
		c-0.313-2.333-0.68-4.711,0.297-6.985c0.284-0.66,0.767-1.253,1.251-1.795c0.156-0.174,0.612-0.124,0.926-0.103
		C84.115,0.271,84.69,0.494,85.171,0C85.512,0,85.853,0,86.194,0z"/>
	<path fill-rule="evenodd" clip-rule="evenodd" fill="#FFFFFF" d="M200,64.426c-0.1,0.304-0.256,0.602-0.287,0.912
		c-0.091,0.919-0.279,1.733-1.105,2.345c-0.381,0.283-0.629,0.834-0.786,1.312c-0.243,0.737-0.929,0.66-1.408,0.792
		c-1.286,0.354-2.613,0.565-3.932,0.792c-0.997,0.171-2.003,0.341-3.011,0.401c-2.097,0.124-4.181,0.007-6.254-0.403
		c-0.842-0.165-1.733-0.053-2.589-0.174c-0.357-0.051-0.731-0.327-0.996-0.6c-0.519-0.531-0.94-1.152-1.446-1.696
		c-0.75-0.802-0.828-1.229-0.225-2.111c0.431-0.631,0.893-1.243,1.364-1.843c0.449-0.573,1.098-0.599,1.761-0.597
		c1.271,0.003,2.546,0.047,3.81-0.046c1.608-0.118,3.22-0.295,4.81-0.565c0.744-0.127,1.439-0.534,2.156-0.818
		c0.261-0.103,0.511-0.283,0.777-0.312c0.782-0.084,1.573-0.088,2.355-0.168c0.395-0.04,0.776-0.21,1.171-0.259
		c0.257-0.032,0.583-0.037,0.78,0.094c0.858,0.569,1.699,1.167,2.506,1.807c0.249,0.198,0.369,0.559,0.549,0.846
		C200,64.231,200,64.329,200,64.426z"/>
	<path fill-rule="evenodd" clip-rule="evenodd" fill="#FFFFFF" d="M67.95,20.604c-0.177,1.03-0.333,1.919-0.48,2.809
		c-0.024,0.149-0.021,0.304-0.018,0.456c0.016,0.629-0.435,1.079-1.065,1.112c-0.574,0.03-1.167,0.036-1.716,0.184
		c-0.701,0.189-1.303,0.08-1.946-0.212c-0.532-0.242-1.239-0.212-1.664-0.554c-0.986-0.796-2.042-1.619-2.722-2.657
		c-1.386-2.114-2.328-4.476-3.063-6.901c-0.414-1.363-0.874-2.733-1.068-4.134c-0.173-1.251-0.086-2.556,0.031-3.823
		c0.085-0.914,1.12-1.615,2.095-1.667c0.347-0.019,0.691-0.118,1.032-0.201c1.178-0.289,2.171,0.387,3.249,0.618
		c0.65,0.14,1.284,0.354,1.93,0.518c0.774,0.197,1.169,0.719,1.383,1.461c0.458,1.599,0.914,3.201,1.436,4.78
		c0.744,2.252,1.562,4.479,2.313,6.728C67.849,19.635,67.878,20.196,67.95,20.604z"/>
	<path fill-rule="evenodd" clip-rule="evenodd" fill="#FFFFFF" d="M166.99,48.445c0-1.588,1.053-2.784,2.648-3.166
		c1.162-0.279,2.286-0.716,3.438-1.041c1.919-0.541,3.846-1.053,5.771-1.57c0.78-0.209,1.553-0.474,2.348-0.586
		c1.507-0.212,2.93-0.931,4.507-0.744c0.294,0.035,0.621-0.063,0.912-0.16c0.801-0.272,1.561-0.157,2.268,0.251
		c0.843,0.486,1.693,0.971,2.473,1.549c0.335,0.249,0.542,0.71,0.724,1.113c0.152,0.337,0.219,0.726,0.257,1.1
		c0.027,0.271,0.043,0.632-0.104,0.814c-0.944,1.153-2.066,2.053-3.538,2.498c-1.946,0.59-3.861,1.284-5.803,1.889
		c-2.31,0.721-4.624,1.434-6.956,2.074c-1.467,0.403-2.905-0.139-4.35-0.349c-0.259-0.037-0.521-0.117-0.777-0.107
		c-1.332,0.051-2.291-0.536-3.106-1.57C167.211,49.819,166.943,49.211,166.99,48.445z"/>
	<path fill-rule="evenodd" clip-rule="evenodd" fill="#FFFFFF" d="M52.878,38.128c-0.384,0-0.742-0.015-1.097,0.002
		c-0.794,0.042-1.589,0.077-2.379,0.153c-1.266,0.122-2.492,0.155-3.397-0.975c-0.084-0.104-0.23-0.198-0.36-0.22
		c-1.186-0.207-1.815-1.119-2.541-1.933c-0.338-0.38-0.792-0.66-1.196-0.981c-1.674-1.324-3.476-2.518-4.984-4.009
		c-1.308-1.294-2.903-2.427-3.483-4.346c-0.487-1.611,0.433-3.19,2.067-3.459c0.071-0.011,0.161,0.022,0.216-0.01
		c1.804-1.035,3.493-0.065,5.215,0.296c0.465,0.098,0.975,0.112,1.382,0.324c0.569,0.296,1.085,0.711,1.581,1.126
		c1.34,1.125,2.706,2.229,3.974,3.433c1.343,1.276,2.62,2.627,3.86,4.003c0.8,0.888,1.478,1.893,1.132,3.207
		C52.489,36.181,52.473,36.701,52.878,38.128z"/>
	<path fill-rule="evenodd" clip-rule="evenodd" fill="#FFFFFF" d="M159.309,33.847c-1.05-0.235-1.854-0.414-2.658-0.597
		c-0.646-0.148-1.382-0.149-1.91-0.482c-1.362-0.861-2.347-2.042-2.362-3.787c-0.007-0.835,0.48-1.495,1.014-1.962
		c1.33-1.167,2.525-2.425,3.584-3.847c0.348-0.468,1.083-0.648,1.64-0.963c0.225-0.128,0.523-0.216,0.655-0.411
		c0.803-1.198,2.152-1.632,3.303-2.294c0.696-0.401,1.654-0.352,2.495-0.502c0.537-0.097,1.074-0.211,1.617-0.278
		c0.972-0.121,1.54,0.596,2.213,1.101c0.368,0.277,0.738,0.559,1.14,0.78c0.546,0.298,0.771,0.827,0.56,1.411
		c-0.07,0.197-0.132,0.422-0.107,0.624c0.127,1.013-0.305,1.818-0.973,2.486c-1.509,1.508-3.055,2.978-4.589,4.458
		c-1.135,1.093-2.216,2.252-3.438,3.237C160.84,33.344,159.939,33.562,159.309,33.847z"/>
	<path fill-rule="evenodd" clip-rule="evenodd" fill="#FFFFFF" d="M108.262,11.786c0-1.355-0.01-2.71,0.002-4.065
		c0.016-1.736,0.367-3.411,1.139-4.965c0.274-0.553,0.731-1.046,1.2-1.463c0.217-0.195,0.656-0.187,0.995-0.19
		c0.844-0.007,1.689,0.028,2.532,0.055c0.317,0.011,0.667-0.037,0.94,0.082c0.964,0.415,1.899,0.895,2.851,1.341
		c0.481,0.226,0.719,0.551,0.71,1.123c-0.033,1.951-0.002,3.901-0.024,5.852c-0.013,0.987-0.136,1.973-0.12,2.957
		c0.016,0.916-0.185,1.733-0.646,2.525c-0.256,0.438-0.397,0.95-0.535,1.445c-0.188,0.679-1.152,1.354-2.073,1.488
		c-1.045,0.154-1.959,0.03-2.996-0.375c-1.271-0.496-2.18-1.376-3.127-2.194c-0.466-0.4-0.515-1.333-0.649-2.044
		c-0.095-0.507-0.019-1.047-0.019-1.572C108.381,11.786,108.322,11.786,108.262,11.786z"/>
	<path fill-rule="evenodd" clip-rule="evenodd" fill="#FFFFFF" d="M132.212,22.423c0.248-0.936,0.503-1.869,0.743-2.807
		c0.395-1.538,0.713-3.1,1.187-4.613c0.379-1.212,0.892-2.39,1.442-3.537c0.35-0.728,1.067-0.901,1.858-0.824
		c0.298,0.029,0.616-0.045,0.914-0.12c1.78-0.449,3.312,0.296,4.85,1.001c0.447,0.205,0.859,0.488,1.307,0.692
		c0.463,0.211,0.517,0.544,0.407,0.98c-0.299,1.207-0.6,2.413-0.878,3.625c-0.353,1.528-0.651,3.069-1.039,4.589
		c-0.155,0.611-0.473,1.184-0.741,1.762c-0.229,0.494-0.51,0.964-0.74,1.458c-0.339,0.723-0.813,1.27-1.602,1.535
		c-0.58,0.196-1.131,0.477-1.702,0.697c-0.893,0.346-1.68,0.044-2.432-0.43c-0.157-0.099-0.331-0.286-0.479-0.269
		c-0.841,0.099-1.353-0.285-1.806-0.967c-0.562-0.847-1.516-1.497-1.061-2.759C132.365,22.432,132.288,22.427,132.212,22.423z"/>
	<path fill-rule="evenodd" clip-rule="evenodd" fill="#FFFFFF" d="M36.381,48.54c-1,0.408-1.199,0.985-0.834,2.267
		c0.064,0.228,0.227,0.455,0.212,0.672c-0.012,0.18-0.191,0.465-0.344,0.501c-1.545,0.365-3.09,0.886-4.654,0.959
		c-1.294,0.061-2.669-0.264-3.904-0.709c-1.162-0.417-2.242-1.137-3.254-1.867c-0.874-0.632-1.617-1.451-2.392-2.213
		c-0.964-0.948-1.92-1.906-2.849-2.89c-0.773-0.819-0.992-2.396-0.309-3.265c0.408-0.519,0.93-1.138,1.771-1.086
		c0.12,0.007,0.273,0.036,0.359-0.021c1.414-0.955,2.832-0.318,4.251-0.031c0.863,0.175,1.769,0.226,2.584,0.527
		c0.632,0.234,1.207,0.71,1.71,1.184c0.817,0.77,1.475,1.723,2.344,2.421c1.204,0.966,2.537,1.772,3.822,2.636
		C35.366,47.94,35.86,48.221,36.381,48.54z"/>
</g>
</svg>
