<?xml version="1.0" encoding="iso-8859-1"?>
<!-- Generator: Adobe Illustrator 19.0.0, SVG Export Plug-In . SVG Version: 6.00 Build 0)  -->
<svg version="1.1" id="Capa_1" xmlns="http://www.w3.org/2000/svg" xmlns:xlink="http://www.w3.org/1999/xlink" x="0px" y="0px"
	 viewBox="0 0 512 512" style="enable-background:new 0 0 512 512;" xml:space="preserve">
<g>
	<g>
		<path d="M504,48H8c-4.424,0-8,3.584-8,8v64v336c0,4.416,3.576,8,8,8h496c4.424,0,8-3.584,8-8V120V56C512,51.584,508.424,48,504,48
			z M496,448H16V128h480V448z M496,112H16V64h480V112z"/>
	</g>
</g>
<g>
	<g>
		<rect x="48" y="80" width="16" height="16"/>
	</g>
</g>
<g>
	<g>
		<rect x="80" y="80" width="16" height="16"/>
	</g>
</g>
<g>
	<g>
		<rect x="112" y="80" width="16" height="16"/>
	</g>
</g>
<g>
	<g>
		<rect x="416" y="80" width="48" height="16"/>
	</g>
</g>
<g>
	<g>
		<path d="M398.656,355.56l-48-72c-2.968-4.456-10.344-4.456-13.312,0l-48,72c-0.872,1.312-1.344,2.864-1.344,4.44v8
			c0,4.416,3.576,8,8,8h16v32c0,4.416,3.576,8,8,8h48c4.424,0,8-3.584,8-8v-32h16c4.424,0,8-3.584,8-8v-8
			C400,358.424,399.528,356.872,398.656,355.56z M368,360c-4.424,0-8,3.584-8,8v32h-32v-32c0-4.416-3.576-8-8-8h-14.384L344,302.424
			L382.384,360H368z"/>
	</g>
</g>
<g>
	<g>
		<path d="M448,160H64c-8.824,0-16,7.176-16,16v144c0,8.824,7.176,16,16,16h224v-16H64V176h384v144h-48v16h48
			c8.824,0,16-7.176,16-16V176C464,167.176,456.824,160,448,160z"/>
	</g>
</g>
<g>
	<g>
		<rect x="48" y="352" width="16" height="16"/>
	</g>
</g>
<g>
	<g>
		<rect x="48" y="384" width="16" height="16"/>
	</g>
</g>
<g>
	<g>
		<rect x="80" y="352" width="128" height="16"/>
	</g>
</g>
<g>
	<g>
		<rect x="80" y="384" width="16" height="16"/>
	</g>
</g>
<g>
	<g>
		<rect x="112" y="384" width="160" height="16"/>
	</g>
</g>
<g>
	<g>
		<rect x="224" y="352" width="16" height="16"/>
	</g>
</g>
<g>
	<g>
		<rect x="256" y="352" width="16" height="16"/>
	</g>
</g>
<g>
	<g>
		<rect x="336" y="192" width="48" height="16"/>
	</g>
</g>
<g>
	<g>
		<rect x="400" y="192" width="32" height="16"/>
	</g>
</g>
<g>
</g>
<g>
</g>
<g>
</g>
<g>
</g>
<g>
</g>
<g>
</g>
<g>
</g>
<g>
</g>
<g>
</g>
<g>
</g>
<g>
</g>
<g>
</g>
<g>
</g>
<g>
</g>
<g>
</g>
</svg>
